<svg width="29" height="30" viewBox="0 0 29 30" fill="none" xmlns="http://www.w3.org/2000/svg">
<g clip-path="url(#clip0_6509_442)">
<path d="M14.3076 0.486328C14.5277 0.486328 14.7096 0.5625 14.8535 0.714844C14.9974 0.858724 15.0693 1.03646 15.0693 1.24805V5.95801C15.0693 6.17806 14.9974 6.36003 14.8535 6.50391C14.7096 6.64779 14.5277 6.71973 14.3076 6.71973C14.1045 6.71973 13.9268 6.64779 13.7744 6.50391C13.6305 6.36003 13.5586 6.17806 13.5586 5.95801V1.24805C13.5586 1.03646 13.6305 0.858724 13.7744 0.714844C13.9268 0.5625 14.1045 0.486328 14.3076 0.486328ZM18.0654 0.867188C18.2686 0.926432 18.4167 1.04069 18.5098 1.20996C18.6113 1.37923 18.6325 1.57389 18.5732 1.79395L18.1543 3.35547C18.1035 3.56706 17.985 3.72363 17.7988 3.8252C17.6211 3.91829 17.4307 3.93945 17.2275 3.88867C17.0244 3.83789 16.8721 3.72363 16.7705 3.5459C16.6689 3.3597 16.6478 3.16504 16.707 2.96191L17.1387 1.40039C17.1979 1.16341 17.3164 0.998372 17.4941 0.905273C17.6719 0.812174 17.8623 0.799479 18.0654 0.867188ZM21.4805 2.40332C21.6582 2.51335 21.7725 2.66569 21.8232 2.86035C21.874 3.05501 21.8486 3.24544 21.7471 3.43164L19.3857 7.51953C19.2842 7.70573 19.1318 7.82845 18.9287 7.8877C18.7256 7.93848 18.5352 7.90885 18.3574 7.79883C18.1797 7.69727 18.0612 7.54915 18.002 7.35449C17.9427 7.15137 17.9723 6.95671 18.0908 6.77051L20.4395 2.66992C20.5495 2.49219 20.7018 2.37793 20.8965 2.32715C21.0996 2.27637 21.2943 2.30176 21.4805 2.40332ZM24.54 4.59961C24.6924 4.75195 24.7643 4.92969 24.7559 5.13281C24.7474 5.32747 24.6628 5.50944 24.502 5.67871L23.3721 6.82129C23.2282 6.97363 23.0547 7.0498 22.8516 7.0498C22.6484 7.0498 22.4707 6.9694 22.3184 6.80859C22.1576 6.65625 22.0771 6.48275 22.0771 6.28809C22.0856 6.08496 22.166 5.90299 22.3184 5.74219L23.4736 4.59961C23.6175 4.45573 23.791 4.38379 23.9941 4.38379C24.2057 4.37533 24.3877 4.44727 24.54 4.59961ZM26.7236 7.64648C26.8252 7.83268 26.8464 8.02311 26.7871 8.21777C26.7363 8.41243 26.6221 8.56478 26.4443 8.6748L22.3438 11.0361C22.1576 11.1462 21.9629 11.1758 21.7598 11.125C21.5651 11.0658 21.417 10.9473 21.3154 10.7695C21.2054 10.5833 21.1758 10.3887 21.2266 10.1855C21.2858 9.98242 21.4085 9.83008 21.5947 9.72852L25.6826 7.36719C25.8688 7.26562 26.0592 7.24023 26.2539 7.29102C26.457 7.3418 26.6136 7.46029 26.7236 7.64648ZM28.2725 11.0742C28.3232 11.2689 28.2979 11.4551 28.1963 11.6328C28.0947 11.8105 27.9339 11.929 27.7139 11.9883L26.1777 12.4199C25.9492 12.4792 25.7503 12.4538 25.5811 12.3438C25.4202 12.2337 25.3145 12.0983 25.2637 11.9375C25.196 11.7005 25.2129 11.4932 25.3145 11.3154C25.416 11.1377 25.5684 11.0192 25.7715 10.96L27.3584 10.5283C27.5446 10.4775 27.7308 10.5029 27.917 10.6045C28.1032 10.7061 28.2217 10.8626 28.2725 11.0742ZM28.6279 14.7939C28.6279 15.0055 28.5518 15.1875 28.3994 15.3398C28.2555 15.4837 28.0778 15.5557 27.8662 15.5557H23.1562C22.9362 15.5557 22.7542 15.4837 22.6104 15.3398C22.4665 15.1875 22.3945 15.0055 22.3945 14.7939C22.3945 14.5824 22.4665 14.4046 22.6104 14.2607C22.7542 14.1169 22.9362 14.0449 23.1562 14.0449H27.8662C28.0778 14.0449 28.2555 14.1169 28.3994 14.2607C28.5518 14.4046 28.6279 14.5824 28.6279 14.7939ZM28.2725 18.5771C28.2132 18.7633 28.0947 18.9072 27.917 19.0088C27.7477 19.1019 27.5531 19.123 27.333 19.0723L25.7715 18.666C25.5684 18.6152 25.416 18.4967 25.3145 18.3105C25.2214 18.1243 25.2002 17.9255 25.251 17.7139C25.3018 17.5107 25.416 17.3584 25.5938 17.2568C25.7715 17.1553 25.9661 17.1299 26.1777 17.1807L27.752 17.625C27.972 17.6927 28.1286 17.8154 28.2217 17.9932C28.3148 18.1709 28.3317 18.3656 28.2725 18.5771ZM26.7109 21.9541C26.6009 22.1318 26.4486 22.2503 26.2539 22.3096C26.0592 22.3604 25.8688 22.335 25.6826 22.2334L21.5947 19.8721C21.4085 19.762 21.2858 19.6097 21.2266 19.415C21.1758 19.2119 21.2054 19.0173 21.3154 18.8311C21.417 18.6533 21.5651 18.5391 21.7598 18.4883C21.9629 18.429 22.1576 18.4544 22.3438 18.5645L26.4443 20.9258C26.6221 21.0273 26.7363 21.1797 26.7871 21.3828C26.8379 21.5859 26.8125 21.7764 26.7109 21.9541ZM24.5273 25.0264C24.375 25.1787 24.1973 25.2507 23.9941 25.2422C23.7995 25.2422 23.6217 25.1618 23.4609 25.001L22.3184 23.8584C22.166 23.7061 22.0856 23.5326 22.0771 23.3379C22.0771 23.1432 22.1491 22.9655 22.293 22.8047C22.4538 22.6439 22.6357 22.5677 22.8389 22.5762C23.0505 22.5846 23.2324 22.6608 23.3848 22.8047L24.5527 23.9473C24.6882 24.0827 24.7559 24.2562 24.7559 24.4678C24.7643 24.6794 24.6882 24.8656 24.5273 25.0264ZM21.4678 27.1973C21.2816 27.2988 21.0911 27.3242 20.8965 27.2734C20.7018 27.2227 20.5495 27.1042 20.4395 26.918L18.0908 22.8301C17.9723 22.6439 17.9427 22.4535 18.002 22.2588C18.0612 22.0557 18.1797 21.8991 18.3574 21.7891C18.5352 21.6875 18.7256 21.6621 18.9287 21.7129C19.1318 21.7637 19.2842 21.8864 19.3857 22.0811L21.7471 26.1689C21.8486 26.3467 21.874 26.5371 21.8232 26.7402C21.7725 26.9434 21.654 27.0957 21.4678 27.1973ZM18.0654 28.7715C17.8369 28.8138 17.6423 28.7799 17.4814 28.6699C17.3291 28.5684 17.2233 28.4118 17.1641 28.2002L16.707 26.6514C16.6478 26.4567 16.6647 26.2663 16.7578 26.0801C16.8509 25.9023 17.0075 25.7839 17.2275 25.7246C17.4307 25.6654 17.6253 25.6865 17.8115 25.7881C18.0062 25.8896 18.1289 26.042 18.1797 26.2451L18.5859 27.8447C18.6367 28.0394 18.6198 28.2256 18.5352 28.4033C18.459 28.5895 18.3024 28.7122 18.0654 28.7715ZM14.3076 29.1143C14.1045 29.1143 13.9268 29.0381 13.7744 28.8857C13.6305 28.7419 13.5586 28.5641 13.5586 28.3525V23.6426C13.5586 23.4225 13.6305 23.2406 13.7744 23.0967C13.9268 22.9528 14.1045 22.8809 14.3076 22.8809C14.5277 22.8809 14.7096 22.9528 14.8535 23.0967C14.9974 23.2406 15.0693 23.4225 15.0693 23.6426V28.3525C15.0693 28.5641 14.9974 28.7419 14.8535 28.8857C14.7096 29.0381 14.5277 29.1143 14.3076 29.1143ZM10.499 28.7588C10.2874 28.6911 10.1436 28.5768 10.0674 28.416C9.99967 28.2552 9.99544 28.0648 10.0547 27.8447L10.4736 26.2832C10.5244 26.0716 10.6387 25.915 10.8164 25.8135C11.0026 25.7204 11.1973 25.6992 11.4004 25.75C11.6035 25.8008 11.7559 25.915 11.8574 26.0928C11.959 26.279 11.9801 26.4736 11.9209 26.6768L11.4893 28.2383C11.4385 28.4329 11.32 28.5853 11.1338 28.6953C10.9476 28.8138 10.736 28.835 10.499 28.7588ZM7.16016 27.1973C6.98242 27.0872 6.86393 26.9307 6.80469 26.7275C6.75391 26.5329 6.78353 26.3467 6.89355 26.1689L9.24219 22.0811C9.35221 21.8864 9.50456 21.7637 9.69922 21.7129C9.90234 21.6621 10.097 21.6875 10.2832 21.7891C10.4609 21.8991 10.5752 22.0557 10.626 22.2588C10.6852 22.4535 10.6598 22.6439 10.5498 22.8301L8.18848 26.918C8.08691 27.1042 7.93457 27.2227 7.73145 27.2734C7.52832 27.3242 7.33789 27.2988 7.16016 27.1973ZM4.10059 25.0137C3.94824 24.8613 3.87207 24.6878 3.87207 24.4932C3.88053 24.307 3.96517 24.1292 4.12598 23.96L5.25586 22.8174C5.39974 22.665 5.57747 22.5931 5.78906 22.6016C6.00065 22.6016 6.17839 22.6777 6.32227 22.8301C6.48307 22.9824 6.55924 23.1559 6.55078 23.3506C6.54232 23.5452 6.46191 23.7272 6.30957 23.8965L5.1543 25.0391C5.01042 25.1829 4.83691 25.2507 4.63379 25.2422C4.43913 25.2422 4.26139 25.166 4.10059 25.0137ZM1.91699 21.9541C1.81543 21.7679 1.79004 21.5775 1.84082 21.3828C1.8916 21.1797 2.01009 21.0273 2.19629 20.9258L6.28418 18.5645C6.47038 18.4544 6.66081 18.429 6.85547 18.4883C7.05859 18.5391 7.21517 18.6576 7.3252 18.8438C7.42676 19.0215 7.45215 19.2119 7.40137 19.415C7.35059 19.6097 7.22786 19.762 7.0332 19.8721L2.94531 22.2334C2.76758 22.335 2.57715 22.3604 2.37402 22.3096C2.1709 22.2503 2.01855 22.1318 1.91699 21.9541ZM0.355469 18.5391C0.304688 18.3444 0.325846 18.1624 0.418945 17.9932C0.520508 17.8154 0.689779 17.6927 0.926758 17.625L2.4502 17.2061C2.66178 17.1553 2.85645 17.1849 3.03418 17.2949C3.21191 17.3965 3.3304 17.5488 3.38965 17.752C3.44889 17.9635 3.42773 18.1582 3.32617 18.3359C3.22461 18.5052 3.06803 18.6195 2.85645 18.6787L1.28223 19.0723C1.08757 19.1146 0.897135 19.0892 0.710938 18.9961C0.52474 18.8945 0.40625 18.7422 0.355469 18.5391ZM0 14.7939C0 14.5824 0.0719401 14.4046 0.21582 14.2607C0.368164 14.1169 0.55013 14.0449 0.761719 14.0449H5.47168C5.69173 14.0449 5.8737 14.1169 6.01758 14.2607C6.16146 14.4046 6.2334 14.5824 6.2334 14.7939C6.2334 15.0055 6.16146 15.1875 6.01758 15.3398C5.8737 15.4837 5.69173 15.5557 5.47168 15.5557H0.761719C0.55013 15.5557 0.368164 15.4837 0.21582 15.3398C0.0719401 15.1875 0 15.0055 0 14.7939ZM0.342773 11.0615C0.385091 10.8669 0.495117 10.7188 0.672852 10.6172C0.859049 10.5156 1.06641 10.4945 1.29492 10.5537L2.85645 10.9473C3.06803 10.998 3.22038 11.1165 3.31348 11.3027C3.40658 11.4889 3.42773 11.6836 3.37695 11.8867C3.33464 12.0983 3.22038 12.2549 3.03418 12.3564C2.85645 12.458 2.66178 12.4834 2.4502 12.4326L0.888672 11.9883C0.702474 11.929 0.554362 11.8105 0.444336 11.6328C0.33431 11.4551 0.300456 11.2646 0.342773 11.0615ZM1.92969 7.63379C2.03125 7.45605 2.17936 7.3418 2.37402 7.29102C2.57715 7.24023 2.76758 7.26562 2.94531 7.36719L7.0332 9.72852C7.22786 9.83008 7.35059 9.98242 7.40137 10.1855C7.45215 10.3887 7.42676 10.5833 7.3252 10.7695C7.21517 10.9473 7.05859 11.0658 6.85547 11.125C6.66081 11.1758 6.47038 11.1462 6.28418 11.0361L2.19629 8.6748C2.01009 8.56478 1.8916 8.41243 1.84082 8.21777C1.79004 8.01465 1.81966 7.81999 1.92969 7.63379ZM4.08789 4.58691C4.2487 4.43457 4.42643 4.3584 4.62109 4.3584C4.82422 4.34993 5.00618 4.43034 5.16699 4.59961L6.29688 5.72949C6.45768 5.8903 6.53385 6.0765 6.52539 6.28809C6.52539 6.49121 6.45345 6.66471 6.30957 6.80859C6.14876 6.9694 5.9668 7.0498 5.76367 7.0498C5.56901 7.04134 5.39128 6.95671 5.23047 6.7959L4.10059 5.65332C3.96517 5.50944 3.889 5.33171 3.87207 5.12012C3.86361 4.90853 3.93555 4.73079 4.08789 4.58691ZM7.16016 2.39062C7.34635 2.28906 7.53678 2.2679 7.73145 2.32715C7.92611 2.37793 8.07845 2.49219 8.18848 2.66992L10.5498 6.77051C10.6598 6.95671 10.6852 7.15137 10.626 7.35449C10.5752 7.54915 10.4567 7.69727 10.2705 7.79883C10.0928 7.90885 9.90234 7.93848 9.69922 7.8877C9.50456 7.82845 9.35221 7.70573 9.24219 7.51953L6.89355 3.43164C6.78353 3.24544 6.75391 3.05501 6.80469 2.86035C6.86393 2.65723 6.98242 2.50065 7.16016 2.39062ZM10.5625 0.829102C10.7741 0.786784 10.9645 0.816406 11.1338 0.917969C11.3115 1.01107 11.43 1.17188 11.4893 1.40039L11.9336 2.93652C11.9928 3.13965 11.9801 3.32585 11.8955 3.49512C11.8193 3.65592 11.667 3.77018 11.4385 3.83789C11.2015 3.9056 10.9899 3.8929 10.8037 3.7998C10.626 3.70671 10.5117 3.56283 10.4609 3.36816L10.042 1.76855C9.98275 1.53158 9.99967 1.32845 10.0928 1.15918C10.1943 0.981445 10.3509 0.871419 10.5625 0.829102Z" fill="#687671"/>
</g>
<defs>
<clipPath id="clip0_6509_442">
<rect width="29" height="30" fill="white"/>
</clipPath>
</defs>
</svg>
