<svg width="92" height="29" viewBox="0 0 92 29" fill="none" xmlns="http://www.w3.org/2000/svg">
<g clip-path="url(#clip0_2014_2227)">
<path d="M43.1746 15.5103C42.4748 14.2707 41.4778 13.3583 40.1837 12.773C40.1775 12.7702 40.1721 12.7659 40.1681 12.7603C40.164 12.7548 40.1615 12.7484 40.1607 12.7416C40.1598 12.7348 40.1608 12.7279 40.1634 12.7215C40.166 12.7152 40.1701 12.7096 40.1755 12.7054C42.0361 11.2503 42.7762 9.16021 42.4815 6.82956C41.9667 2.7515 38.1559 1.1063 34.5414 1.09803C30.7013 1.09001 26.8594 1.08751 23.0158 1.09051C22.9909 1.09051 22.9785 1.10304 22.9785 1.12809V15.4825C22.9784 15.487 22.9769 15.4914 22.9741 15.4949C22.9712 15.4984 22.9673 15.5009 22.963 15.502C22.9586 15.503 22.954 15.5025 22.9499 15.5006C22.9458 15.4987 22.9425 15.4955 22.9404 15.4915C22.2914 14.2634 21.2223 13.3668 19.9996 12.7655C19.9919 12.7619 19.9853 12.7563 19.9805 12.7494C19.9756 12.7424 19.9726 12.7343 19.9718 12.7257C19.971 12.7172 19.9724 12.7086 19.9758 12.7007C19.9792 12.6928 19.9846 12.6859 19.9913 12.6806C21.9497 11.1805 22.6562 8.81674 22.2138 6.42522C21.5095 2.61471 17.7517 1.09051 14.3058 1.08901C10.494 1.08801 6.66383 1.08851 2.81526 1.09051C2.80002 1.09051 2.78541 1.09661 2.77464 1.10746C2.76386 1.11832 2.75781 1.13304 2.75781 1.14838L2.77199 25.5912C2.77199 25.6383 2.79313 25.6619 2.8354 25.6619C6.65165 25.6694 10.4828 25.6729 14.3289 25.6724C17.5414 25.6716 21.3753 24.8434 22.9509 21.704C22.9527 21.701 22.9554 21.6985 22.9587 21.6971C22.9619 21.6957 22.9655 21.6954 22.969 21.6963C22.9724 21.6971 22.9755 21.6991 22.9777 21.7018C22.98 21.7046 22.9813 21.708 22.9815 21.7116L22.977 25.6378C22.977 25.6452 22.9799 25.6523 22.9851 25.6575C22.9903 25.6627 22.9973 25.6656 23.0046 25.6656C26.8368 25.6691 30.6687 25.6664 34.5003 25.6574C37.8023 25.6491 41.4333 24.9148 43.1738 21.7138C43.1751 21.7113 43.1773 21.7093 43.1799 21.7082C43.1824 21.707 43.1853 21.7067 43.1881 21.7074C43.1908 21.7081 43.1933 21.7097 43.195 21.712C43.1967 21.7142 43.1977 21.717 43.1977 21.7198L43.1954 25.6393C43.1954 25.6426 43.1961 25.6458 43.1973 25.6488C43.1986 25.6518 43.2004 25.6545 43.2027 25.6569C43.2049 25.6592 43.2077 25.661 43.2106 25.6622C43.2136 25.6635 43.2168 25.6641 43.2201 25.6641C46.4186 25.6701 49.6201 25.6684 52.8246 25.6589C58.452 25.6416 63.1737 22.7142 65.1089 17.2968C65.1099 17.294 65.1118 17.2916 65.1142 17.2899C65.1167 17.2882 65.1196 17.2874 65.1226 17.2875C65.1256 17.2875 65.1284 17.2886 65.1308 17.2904C65.1331 17.2922 65.1349 17.2947 65.1357 17.2975C67.059 23.3793 72.9095 26.7013 79.1039 25.955C82.1975 25.5817 84.8056 24.2852 86.9283 22.0656C91.3665 17.4246 91.4881 9.64873 87.1887 4.88298C85.4989 3.01004 83.3272 1.70455 80.8787 1.09953C74.2606 -0.536654 67.2821 2.73647 65.1559 9.47211C65.142 9.51771 65.1278 9.51771 65.1134 9.47211C63.528 4.52147 59.1309 1.53394 54.0817 1.13561C53.743 1.10855 53.2461 1.09477 52.5911 1.09427C49.4652 1.08976 46.3365 1.08751 43.2051 1.08751C43.2026 1.08751 43.2001 1.08846 43.1983 1.09015C43.1965 1.09184 43.1954 1.09413 43.1954 1.09653L43.1977 15.5043C43.1979 15.507 43.1971 15.5097 43.1956 15.5119C43.194 15.514 43.1917 15.5156 43.189 15.5163C43.1863 15.517 43.1835 15.5168 43.1809 15.5157C43.1782 15.5146 43.176 15.5127 43.1746 15.5103Z" stroke="white" stroke-width="2"/>
<path d="M73.5945 18.8383C75.3163 20.1693 77.5351 20.4925 79.58 19.81C83.6966 18.4362 84.9104 13.3217 82.9245 9.79001C80.194 4.93331 72.9559 5.75629 71.3571 11.1196C70.5335 13.8824 71.2683 17.0412 73.5945 18.8383Z" stroke="white" stroke-width="2"/>
<path d="M16.0521 8.11471C15.8111 6.97908 14.372 6.76864 13.4469 6.76638C11.9394 6.76288 10.4496 6.76262 8.97738 6.76563C8.96445 6.76563 8.95165 6.76818 8.9397 6.77313C8.92775 6.77807 8.91689 6.78533 8.90775 6.79447C8.89861 6.80361 8.89135 6.81446 8.8864 6.82641C8.88145 6.83836 8.87891 6.85116 8.87891 6.86409L8.88114 10.5153C8.88164 10.5448 8.89656 10.5596 8.92591 10.5596C10.3817 10.5636 11.8372 10.5573 13.2925 10.5408C14.7734 10.5235 16.4669 10.0711 16.0521 8.11471Z" stroke="white" stroke-width="2"/>
<path d="M29.115 6.76198L29.1016 10.5199C29.1016 10.5239 29.1031 10.5277 29.1059 10.5305C29.1087 10.5333 29.1125 10.5349 29.1165 10.5349L33.9158 10.5522C34.2323 10.5533 34.546 10.5102 34.8387 10.4254C35.1315 10.3406 35.3977 10.2158 35.6221 10.058C35.8465 9.90019 36.0247 9.71254 36.1465 9.50576C36.2684 9.29899 36.3314 9.07714 36.3322 8.85287L36.3337 8.48009C36.3352 8.02725 36.0827 7.59208 35.6318 7.2703C35.1809 6.94853 34.5684 6.76649 33.9292 6.76423L29.1299 6.74695C29.126 6.74695 29.1222 6.74853 29.1194 6.75135C29.1166 6.75417 29.115 6.75799 29.115 6.76198Z" stroke="white" stroke-width="2"/>
<path d="M49.454 6.8942L49.4316 19.8529C49.4316 19.8571 49.4333 19.8611 49.4362 19.8641C49.4392 19.867 49.4431 19.8687 49.4473 19.8687L53.0559 19.8747C53.8642 19.8761 54.6648 19.7172 55.4121 19.407C56.1593 19.0968 56.8386 18.6415 57.4111 18.0669C57.9836 17.4924 58.4381 16.81 58.7487 16.0586C59.0593 15.3072 59.2198 14.5016 59.2212 13.6877L59.2227 13.0925C59.224 12.2786 59.0662 11.4724 58.7582 10.72C58.4501 9.96753 57.9979 9.28355 57.4274 8.70708C56.8568 8.13061 56.1791 7.67295 55.4328 7.36021C54.6866 7.04748 53.8865 6.88581 53.0783 6.88443L49.4697 6.87842C49.4655 6.87842 49.4615 6.88008 49.4586 6.88304C49.4557 6.886 49.454 6.89002 49.454 6.8942Z" stroke="white" stroke-width="2"/>
<path d="M8.89038 16.0379L8.87695 19.9206C8.87695 19.9355 8.88285 19.9499 8.89334 19.9604C8.90383 19.971 8.91807 19.977 8.93291 19.977L14.843 19.998C15.5246 20.0004 16.1789 19.813 16.662 19.4771C17.1451 19.1412 17.4175 18.6844 17.4191 18.207L17.4206 17.8117C17.4214 17.5753 17.3557 17.3409 17.2273 17.1221C17.0989 16.9032 16.9103 16.7041 16.6722 16.5361C16.434 16.3682 16.1511 16.2346 15.8396 16.143C15.5281 16.0515 15.194 16.0038 14.8565 16.0026L8.94633 15.9816C8.9315 15.9816 8.91726 15.9875 8.90677 15.9981C8.89628 16.0086 8.89038 16.023 8.89038 16.0379Z" stroke="white" stroke-width="2"/>
<path d="M29.1051 16.0266L29.0977 19.9468C29.0977 19.9568 29.1016 19.9663 29.1086 19.9734C29.1156 19.9804 29.1251 19.9844 29.135 19.9844L35.0623 19.9949C35.3994 19.9956 35.7334 19.9493 36.0451 19.8588C36.3568 19.7683 36.6401 19.6354 36.8788 19.4675C37.1175 19.2997 37.307 19.1002 37.4364 18.8806C37.5659 18.6609 37.6327 18.4254 37.6331 18.1874V17.8161C37.6339 17.3356 37.3644 16.8743 36.8836 16.5336C36.4029 16.193 35.7505 16.0008 35.0697 15.9995L29.1424 15.989C29.1325 15.989 29.123 15.993 29.116 16C29.109 16.0071 29.1051 16.0166 29.1051 16.0266Z" stroke="white" stroke-width="2"/>
<path d="M0 0H91.5392V28.0339H0V0ZM43.1741 15.5103C42.4743 14.2707 41.4774 13.3583 40.1832 12.7731C40.177 12.7703 40.1717 12.7659 40.1676 12.7604C40.1636 12.7549 40.161 12.7484 40.1602 12.7416C40.1594 12.7348 40.1603 12.7279 40.1629 12.7215C40.1655 12.7152 40.1697 12.7097 40.175 12.7054C42.0357 11.2504 42.7757 9.16024 42.481 6.82959C41.9663 2.75153 38.1555 1.10632 34.5409 1.09806C30.7008 1.09004 26.8589 1.08753 23.0153 1.09054C22.9905 1.09054 22.978 1.10307 22.978 1.12812V15.4825C22.978 15.487 22.9764 15.4914 22.9736 15.4949C22.9708 15.4985 22.9669 15.501 22.9625 15.502C22.9581 15.503 22.9536 15.5026 22.9495 15.5007C22.9454 15.4988 22.9421 15.4956 22.94 15.4915C22.2909 14.2635 21.2219 13.3668 19.9991 12.7656C19.9915 12.7619 19.9849 12.7564 19.98 12.7494C19.9752 12.7424 19.9722 12.7343 19.9714 12.7258C19.9706 12.7172 19.9719 12.7086 19.9753 12.7007C19.9788 12.6928 19.9841 12.6859 19.9909 12.6806C21.9493 11.1805 22.6558 8.81676 22.2134 6.42524C21.5091 2.61474 17.7513 1.09054 14.3053 1.08904C10.4936 1.08803 6.66338 1.08854 2.81481 1.09054C2.79958 1.09054 2.78496 1.09664 2.77419 1.10749C2.76342 1.11834 2.75737 1.13306 2.75737 1.14841L2.77154 25.5912C2.77154 25.6383 2.79268 25.6619 2.83495 25.6619C6.6512 25.6694 10.4824 25.6729 14.3285 25.6724C17.5409 25.6717 21.3748 24.8434 22.9504 21.7041C22.9522 21.701 22.9549 21.6986 22.9582 21.6972C22.9615 21.6958 22.9651 21.6955 22.9685 21.6963C22.972 21.6972 22.975 21.6991 22.9773 21.7019C22.9796 21.7046 22.9809 21.708 22.981 21.7116L22.9766 25.6378C22.9766 25.6452 22.9795 25.6523 22.9846 25.6575C22.9898 25.6627 22.9968 25.6656 23.0042 25.6656C26.8363 25.6692 30.6682 25.6664 34.4999 25.6574C37.8019 25.6491 41.4328 24.9148 43.1734 21.7138C43.1747 21.7113 43.1768 21.7093 43.1794 21.7082C43.182 21.707 43.1849 21.7068 43.1876 21.7075C43.1904 21.7082 43.1928 21.7098 43.1946 21.712C43.1963 21.7142 43.1972 21.717 43.1972 21.7199L43.195 25.6393C43.195 25.6426 43.1956 25.6458 43.1969 25.6488C43.1981 25.6518 43.1999 25.6546 43.2022 25.6569C43.2045 25.6592 43.2072 25.661 43.2102 25.6623C43.2132 25.6635 43.2164 25.6641 43.2196 25.6641C46.4181 25.6702 49.6197 25.6684 52.8241 25.6589C58.4515 25.6416 63.1732 22.7142 65.1084 17.2968C65.1095 17.294 65.1113 17.2916 65.1138 17.2899C65.1163 17.2883 65.1192 17.2874 65.1221 17.2875C65.1251 17.2876 65.128 17.2886 65.1303 17.2904C65.1327 17.2922 65.1344 17.2947 65.1353 17.2976C67.0586 23.3793 72.909 26.7013 79.1034 25.955C82.197 25.5817 84.8052 24.2852 86.9279 22.0656C91.3661 17.4246 91.4877 9.64876 87.1883 4.883C85.4985 3.01007 83.3268 1.70458 80.8783 1.09956C74.2601 -0.536627 67.2817 2.7365 65.1554 9.47214C65.1415 9.51774 65.1273 9.51774 65.1129 9.47214C63.5276 4.52149 59.1304 1.53397 54.0812 1.13563C53.7425 1.10858 53.2457 1.0948 52.5906 1.0943C49.4647 1.08979 46.3361 1.08753 43.2047 1.08753C43.2021 1.08753 43.1997 1.08848 43.1978 1.09018C43.196 1.09187 43.195 1.09416 43.195 1.09655L43.1972 15.5043C43.1974 15.507 43.1967 15.5097 43.1951 15.5119C43.1935 15.5141 43.1912 15.5156 43.1886 15.5163C43.1859 15.517 43.183 15.5168 43.1804 15.5157C43.1778 15.5146 43.1756 15.5127 43.1741 15.5103Z" fill="white"/>
<path d="M43.1746 15.5103C43.176 15.5127 43.1782 15.5146 43.1809 15.5157C43.1835 15.5168 43.1863 15.517 43.189 15.5163C43.1917 15.5156 43.194 15.514 43.1956 15.5119C43.1971 15.5097 43.1979 15.507 43.1977 15.5043L43.1954 1.09653C43.1954 1.09413 43.1965 1.09184 43.1983 1.09015C43.2001 1.08846 43.2026 1.08751 43.2051 1.08751C46.3365 1.08751 49.4652 1.08976 52.5911 1.09427C53.2461 1.09477 53.743 1.10855 54.0817 1.13561C59.1309 1.53394 63.528 4.52147 65.1134 9.47211C65.1278 9.51771 65.142 9.51771 65.1559 9.47211C67.2821 2.73647 74.2606 -0.536654 80.8787 1.09953C83.3272 1.70455 85.4989 3.01004 87.1887 4.88298C91.4881 9.64873 91.3665 17.4246 86.9283 22.0656C84.8056 24.2852 82.1974 25.5817 79.1039 25.955C72.9095 26.7013 67.059 23.3793 65.1357 17.2975C65.1349 17.2947 65.1331 17.2922 65.1308 17.2904C65.1284 17.2886 65.1256 17.2875 65.1226 17.2875C65.1196 17.2874 65.1167 17.2882 65.1143 17.2899C65.1118 17.2916 65.1099 17.294 65.1089 17.2968C63.1737 22.7142 58.452 25.6416 52.8246 25.6589C49.6201 25.6684 46.4186 25.6701 43.2201 25.6641C43.2168 25.6641 43.2136 25.6635 43.2106 25.6622C43.2077 25.661 43.2049 25.6592 43.2027 25.6569C43.2004 25.6545 43.1986 25.6518 43.1973 25.6488C43.1961 25.6458 43.1954 25.6426 43.1954 25.6393L43.1977 21.7198C43.1977 21.717 43.1967 21.7142 43.195 21.712C43.1933 21.7097 43.1908 21.7081 43.1881 21.7074C43.1853 21.7067 43.1824 21.707 43.1799 21.7082C43.1773 21.7093 43.1751 21.7113 43.1738 21.7138C41.4333 24.9148 37.8023 25.6491 34.5003 25.6574C30.6687 25.6664 26.8368 25.6691 23.0046 25.6656C22.9973 25.6656 22.9903 25.6627 22.9851 25.6575C22.9799 25.6523 22.977 25.6452 22.977 25.6378L22.9815 21.7116C22.9813 21.708 22.98 21.7046 22.9777 21.7018C22.9755 21.6991 22.9724 21.6971 22.969 21.6963C22.9655 21.6954 22.9619 21.6957 22.9587 21.6971C22.9554 21.6985 22.9527 21.701 22.9509 21.7041C21.3753 24.8434 17.5414 25.6716 14.3289 25.6724C10.4828 25.6729 6.65165 25.6694 2.8354 25.6619C2.79313 25.6619 2.77199 25.6383 2.77199 25.5912L2.75781 1.14838C2.75781 1.13304 2.76386 1.11832 2.77464 1.10746C2.78541 1.09661 2.80002 1.09051 2.81526 1.09051C6.66383 1.08851 10.494 1.08801 14.3058 1.08901C17.7517 1.09051 21.5095 2.61471 22.2138 6.42522C22.6562 8.81674 21.9497 11.1805 19.9913 12.6806C19.9846 12.6859 19.9792 12.6928 19.9758 12.7007C19.9724 12.7086 19.971 12.7172 19.9718 12.7257C19.9726 12.7343 19.9756 12.7424 19.9805 12.7494C19.9853 12.7563 19.9919 12.7619 19.9996 12.7655C21.2223 13.3668 22.2914 14.2634 22.9404 15.4915C22.9425 15.4955 22.9458 15.4987 22.9499 15.5006C22.954 15.5025 22.9586 15.503 22.963 15.502C22.9673 15.5009 22.9712 15.4984 22.9741 15.4949C22.9769 15.4914 22.9784 15.487 22.9785 15.4825V1.12809C22.9785 1.10304 22.9909 1.09051 23.0158 1.09051C26.8594 1.08751 30.7013 1.09001 34.5414 1.09803C38.1559 1.1063 41.9667 2.7515 42.4815 6.82956C42.7762 9.16021 42.0361 11.2503 40.1755 12.7054C40.1701 12.7096 40.166 12.7152 40.1634 12.7215C40.1608 12.7279 40.1598 12.7348 40.1607 12.7416C40.1615 12.7484 40.164 12.7548 40.1681 12.7603C40.1721 12.7659 40.1775 12.7702 40.1837 12.773C41.4778 13.3583 42.4748 14.2707 43.1746 15.5103ZM73.5944 18.8383C75.3162 20.1693 77.5349 20.4925 79.5798 19.8101C83.6965 18.4362 84.9103 13.3217 82.9243 9.79003C80.1938 4.93333 72.9557 5.75631 71.357 11.1196C70.5333 13.8824 71.2682 17.0413 73.5944 18.8383ZM16.053 8.11476C15.812 6.97913 14.3729 6.76869 13.4478 6.76643C11.9403 6.76292 10.4505 6.76267 8.9783 6.76568C8.96537 6.76568 8.95256 6.76823 8.94061 6.77317C8.92866 6.77812 8.91781 6.78537 8.90866 6.79452C8.89952 6.80366 8.89227 6.81451 8.88732 6.82646C8.88237 6.8384 8.87982 6.85121 8.87982 6.86414L8.88206 10.5153C8.88256 10.5449 8.89748 10.5596 8.92682 10.5596C10.3826 10.5637 11.8381 10.5574 13.2934 10.5409C14.7743 10.5236 16.4678 10.0711 16.053 8.11476ZM29.1147 6.76192L29.1012 10.5198C29.1012 10.5238 29.1028 10.5276 29.1056 10.5304C29.1084 10.5333 29.1122 10.5348 29.1162 10.5348L33.9154 10.5521C34.232 10.5533 34.5457 10.5102 34.8384 10.4254C35.1312 10.3406 35.3974 10.2157 35.6218 10.0579C35.8462 9.90013 36.0244 9.71248 36.1462 9.50571C36.268 9.29893 36.3311 9.07708 36.3319 8.85281L36.3334 8.48003C36.3349 8.02719 36.0824 7.59203 35.6315 7.27025C35.1805 6.94847 34.5681 6.76643 33.9289 6.76418L29.1296 6.74689C29.1256 6.74689 29.1218 6.74847 29.119 6.75129C29.1163 6.75411 29.1147 6.75794 29.1147 6.76192ZM49.4547 6.8942L49.4323 19.8529C49.4323 19.8571 49.434 19.8611 49.4369 19.8641C49.4399 19.867 49.4439 19.8687 49.448 19.8687L53.0566 19.8747C53.8649 19.8761 54.6655 19.7172 55.4128 19.407C56.16 19.0968 56.8393 18.6415 57.4118 18.0669C57.9843 17.4924 58.4388 16.81 58.7494 16.0586C59.06 15.3072 59.2205 14.5016 59.2219 13.6877L59.2234 13.0925C59.2248 12.2786 59.0669 11.4724 58.7589 10.72C58.4508 9.96753 57.9986 9.28355 57.4281 8.70708C56.8575 8.13061 56.1798 7.67294 55.4335 7.36021C54.6873 7.04748 53.8872 6.88581 53.079 6.88443L49.4704 6.87842C49.4662 6.87842 49.4623 6.88008 49.4593 6.88304C49.4564 6.886 49.4547 6.89001 49.4547 6.8942ZM8.89027 16.0379L8.87684 19.9206C8.87684 19.9355 8.88273 19.9498 8.89322 19.9604C8.90372 19.971 8.91795 19.9769 8.93279 19.9769L14.8429 19.998C15.5245 20.0003 16.1788 19.8129 16.6619 19.4771C17.145 19.1412 17.4174 18.6843 17.419 18.207L17.4205 17.8116C17.4213 17.5752 17.3556 17.3409 17.2272 17.1221C17.0988 16.9032 16.9101 16.7041 16.672 16.5361C16.4339 16.3681 16.151 16.2345 15.8395 16.143C15.528 16.0515 15.1939 16.0037 14.8564 16.0026L8.94622 15.9815C8.93138 15.9815 8.91715 15.9875 8.90665 15.998C8.89616 16.0086 8.89027 16.023 8.89027 16.0379ZM29.105 16.0266L29.0975 19.9469C29.0975 19.9568 29.1014 19.9664 29.1084 19.9734C29.1154 19.9805 29.1249 19.9844 29.1348 19.9844L35.0621 19.995C35.3993 19.9956 35.7332 19.9494 36.0449 19.8589C36.3566 19.7684 36.6399 19.6354 36.8787 19.4676C37.1174 19.2997 37.3069 19.1003 37.4363 18.8806C37.5657 18.661 37.6326 18.4254 37.633 18.1874V17.8161C37.6338 17.3356 37.3642 16.8743 36.8835 16.5336C36.4028 16.193 35.7503 16.0009 35.0696 15.9996L29.1423 15.989C29.1324 15.989 29.1229 15.993 29.1159 16.0001C29.1089 16.0071 29.105 16.0167 29.105 16.0266Z" fill="#5B5B5B"/>
<path d="M73.5925 18.8383C71.2664 17.0412 70.5315 13.8824 71.3551 11.1196C72.9539 5.75629 80.192 4.93331 82.9225 9.79001C84.9085 13.3217 83.6947 18.4362 79.578 19.81C77.5331 20.4925 75.3144 20.1693 73.5925 18.8383Z" fill="white"/>
<path d="M13.4469 6.7665C14.372 6.76876 15.8111 6.9792 16.0521 8.11484C16.4669 10.0712 14.7734 10.5236 13.2925 10.5409C11.8372 10.5575 10.3817 10.5637 8.92591 10.5597C8.89656 10.5597 8.88164 10.5449 8.88114 10.5154L8.87891 6.86421C8.87891 6.85128 8.88145 6.83848 8.8864 6.82653C8.89135 6.81459 8.89861 6.80373 8.90775 6.79459C8.91689 6.78545 8.92775 6.7782 8.9397 6.77325C8.95165 6.7683 8.96445 6.76575 8.97738 6.76575C10.4496 6.76275 11.9394 6.763 13.4469 6.7665Z" fill="white"/>
<path d="M29.115 6.76198C29.115 6.75799 29.1166 6.75417 29.1194 6.75135C29.1222 6.74853 29.126 6.74695 29.1299 6.74695L33.9292 6.76423C34.5684 6.76649 35.1809 6.94853 35.6318 7.2703C36.0827 7.59208 36.3352 8.02725 36.3337 8.48009L36.3322 8.85287C36.3314 9.07714 36.2684 9.29899 36.1465 9.50576C36.0247 9.71254 35.8465 9.90019 35.6221 10.058C35.3977 10.2158 35.1315 10.3406 34.8387 10.4254C34.546 10.5102 34.2323 10.5533 33.9158 10.5522L29.1165 10.5349C29.1125 10.5349 29.1087 10.5333 29.1059 10.5305C29.1031 10.5277 29.1016 10.5239 29.1016 10.5199L29.115 6.76198Z" fill="white"/>
<path d="M49.454 6.8942C49.454 6.89002 49.4557 6.886 49.4586 6.88304C49.4615 6.88008 49.4655 6.87842 49.4697 6.87842L53.0783 6.88443C53.8865 6.88581 54.6866 7.04748 55.4328 7.36021C56.1791 7.67295 56.8568 8.13061 57.4274 8.70708C57.9979 9.28355 58.4501 9.96753 58.7582 10.72C59.0662 11.4724 59.224 12.2786 59.2227 13.0925L59.2212 13.6877C59.2198 14.5016 59.0593 15.3072 58.7487 16.0586C58.4381 16.81 57.9836 17.4924 57.4111 18.0669C56.8386 18.6415 56.1593 19.0968 55.4121 19.407C54.6648 19.7172 53.8642 19.8761 53.0559 19.8747L49.4473 19.8687C49.4431 19.8687 49.4392 19.867 49.4362 19.8641C49.4333 19.8611 49.4316 19.8571 49.4316 19.8529L49.454 6.8942Z" fill="white"/>
<path d="M8.89038 16.0379C8.89038 16.023 8.89628 16.0086 8.90677 15.9981C8.91726 15.9875 8.9315 15.9816 8.94633 15.9816L14.8565 16.0026C15.194 16.0038 15.5281 16.0515 15.8396 16.143C16.1511 16.2346 16.434 16.3682 16.6722 16.5361C16.9103 16.7041 17.0989 16.9032 17.2273 17.1221C17.3557 17.3409 17.4214 17.5753 17.4206 17.8117L17.4191 18.207C17.4175 18.6844 17.1451 19.1412 16.662 19.4771C16.1789 19.813 15.5246 20.0004 14.843 19.998L8.93291 19.977C8.91807 19.977 8.90383 19.971 8.89334 19.9604C8.88285 19.9499 8.87695 19.9355 8.87695 19.9206L8.89038 16.0379Z" fill="white"/>
<path d="M29.1032 16.0267C29.1032 16.0167 29.1071 16.0072 29.1141 16.0001C29.1211 15.9931 29.1306 15.9891 29.1405 15.9891L35.0678 15.9997C35.7485 16.001 36.401 16.1931 36.8817 16.5337C37.3624 16.8744 37.632 17.3357 37.6312 17.8162V18.1875C37.6307 18.4255 37.5639 18.6611 37.4345 18.8807C37.3051 19.1004 37.1156 19.2998 36.8768 19.4676C36.6381 19.6355 36.3548 19.7685 36.0431 19.859C35.7314 19.9495 35.3975 19.9957 35.0603 19.995L29.133 19.9845C29.1231 19.9845 29.1136 19.9806 29.1066 19.9735C29.0996 19.9665 29.0957 19.9569 29.0957 19.9469L29.1032 16.0267Z" fill="white"/>
</g>
<defs>
<clipPath id="clip0_2014_2227">
<rect width="91.5392" height="28.0339" fill="white"/>
</clipPath>
</defs>
</svg>
