<svg width="30" height="30" viewBox="0 0 30 30" fill="none" xmlns="http://www.w3.org/2000/svg">
<g clip-path="url(#clip0_6509_444)">
<path d="M7.00196 26.2764C5.86784 26.2764 5.02995 26.0055 4.48828 25.4639C3.94662 24.9222 3.67578 24.0843 3.67578 22.9502V20.208C3.67578 19.9541 3.59115 19.7383 3.42188 19.5605L1.4795 17.6055C0.675455 16.8099 0.273438 16.0312 0.273438 15.2695C0.273438 14.5078 0.675455 13.7249 1.4795 12.9209L3.42188 10.9658C3.59115 10.7881 3.67578 10.5765 3.67578 10.3311V7.57617C3.67578 6.43359 3.94662 5.5957 4.48828 5.0625C5.02995 4.52083 5.86784 4.25 7.00196 4.25H9.74414C10.0065 4.25 10.2224 4.16536 10.3916 3.99609L12.3467 2.05371C13.1507 1.24967 13.9294 0.847656 14.6826 0.847656C15.4444 0.847656 16.2272 1.24967 17.0313 2.05371L18.9864 3.99609C19.1641 4.16536 19.3799 4.25 19.6338 4.25H22.376C23.5186 4.25 24.3565 4.52507 24.8897 5.0752C25.4313 5.61686 25.7022 6.45052 25.7022 7.57617V10.3311C25.7022 10.5765 25.791 10.7881 25.9688 10.9658L27.8985 12.9209C28.7025 13.7249 29.1045 14.5078 29.1045 15.2695C29.113 16.0312 28.711 16.8099 27.8985 17.6055L25.9688 19.5605C25.791 19.7383 25.7022 19.9541 25.7022 20.208V22.9502C25.7022 24.0928 25.4313 24.9307 24.8897 25.4639C24.348 26.0055 23.5101 26.2764 22.376 26.2764H19.6338C19.3799 26.2764 19.1641 26.3652 18.9864 26.543L17.0313 28.4854C16.2272 29.2809 15.4444 29.6787 14.6826 29.6787C13.9294 29.6872 13.1507 29.2894 12.3467 28.4854L10.3916 26.543C10.2224 26.3652 10.0065 26.2764 9.74414 26.2764H7.00196ZM7.00196 24.2578H10.417C10.8063 24.2578 11.128 24.3932 11.3819 24.6641L13.7686 27.0635C14.1748 27.4613 14.4795 27.6602 14.6826 27.6602C14.8942 27.6602 15.2031 27.4613 15.6094 27.0635L18.0088 24.6641C18.2627 24.3932 18.5801 24.2578 18.961 24.2578H22.376C22.9431 24.2578 23.3028 24.1816 23.4551 24.0293C23.6074 23.877 23.6836 23.5173 23.6836 22.9502V19.5352C23.6836 19.1628 23.819 18.8454 24.0899 18.583L26.4893 16.1963C26.8871 15.79 27.086 15.4811 27.086 15.2695C27.086 15.0579 26.8871 14.749 26.4893 14.3428L24.0899 11.9561C23.819 11.6852 23.6836 11.3636 23.6836 10.9912V7.57617C23.6836 7.01758 23.6074 6.66211 23.4551 6.50977C23.3028 6.34896 22.9431 6.26855 22.376 6.26855H18.961C18.5801 6.26855 18.2627 6.13737 18.0088 5.875L15.6094 3.47559C15.2031 3.0778 14.8942 2.87891 14.6826 2.87891C14.4795 2.87891 14.1748 3.0778 13.7686 3.47559L11.3819 5.875C11.128 6.13737 10.8063 6.26855 10.417 6.26855H7.00196C6.42644 6.26855 6.0625 6.34473 5.91016 6.49707C5.76628 6.64941 5.69434 7.00911 5.69434 7.57617V10.9912C5.69434 11.3636 5.56315 11.6852 5.30078 11.9561L2.90137 14.3428C2.49512 14.749 2.292 15.0579 2.292 15.2695C2.292 15.4811 2.49512 15.79 2.90137 16.1963L5.30078 18.583C5.56315 18.8454 5.69434 19.1628 5.69434 19.5352V22.9502C5.69434 23.5173 5.77051 23.877 5.92286 24.0293C6.0752 24.1816 6.4349 24.2578 7.00196 24.2578ZM13.3115 21.2871C13.1 21.2871 12.9053 21.2406 12.7276 21.1475C12.5583 21.0544 12.3933 20.9062 12.2324 20.7031L9.13477 16.8945C8.94011 16.6322 8.84278 16.3698 8.84278 16.1074C8.84278 15.8281 8.93588 15.5911 9.12207 15.3965C9.31674 15.1934 9.54948 15.0918 9.82032 15.0918C9.99805 15.0918 10.1589 15.1299 10.3028 15.2061C10.4551 15.2738 10.6074 15.4092 10.7598 15.6123L13.2608 18.8496L18.5293 10.3945C18.7663 10.0137 19.0625 9.82324 19.418 9.82324C19.6804 9.82324 19.9173 9.90788 20.1289 10.0771C20.3405 10.2464 20.4463 10.4707 20.4463 10.75C20.4463 10.8939 20.4125 11.0378 20.3448 11.1816C20.2855 11.3171 20.2178 11.444 20.1416 11.5625L14.3399 20.7031C14.086 21.0924 13.7432 21.2871 13.3115 21.2871Z" fill="#687671"/>
</g>
<defs>
<clipPath id="clip0_6509_444">
<rect width="30" height="30" fill="white"/>
</clipPath>
</defs>
</svg>

