<svg width="63" height="36" viewBox="0 0 63 36" fill="none" xmlns="http://www.w3.org/2000/svg">
<path d="M7.36281 0.0142826H11.1978C9.23387 1.97818 7.54135 4.06347 6.07736 6.26303L7.36281 0.0142826ZM9.18388 13.0474C10.755 9.56952 13.0545 6.32016 16.0325 3.37075C17.2537 2.15671 18.5677 1.02837 19.9603 0.0142826H26.0305C25.852 0.0999798 25.6592 0.192819 25.4592 0.278516C22.824 1.56397 20.4173 3.28506 18.2821 5.39178C16.0325 7.6199 14.24 10.048 12.9474 12.6189C11.6977 15.1184 10.9335 17.6893 10.6836 20.2602C10.1908 25.4378 11.8762 30.2368 15.4326 33.7647C16.1682 34.5002 16.9895 35.1501 17.8679 35.7071H11.5834C10.1837 34.136 9.06247 32.3364 8.28406 30.3868C7.3771 28.1229 6.92004 25.6734 6.92004 23.1168C6.92004 19.7675 7.68418 16.3896 9.19816 13.0331L9.18388 13.0474ZM17.218 8.31262C17.8179 7.59134 18.4535 6.89862 19.1176 6.23447C22.1527 3.22793 25.6877 1.14977 29.2941 0.0142826H32.6435L32.2507 1.88534C28.1015 2.48522 24.0381 4.56337 20.7887 7.80558C20.6102 7.98412 20.4531 8.14123 20.2888 8.31262H17.218ZM36.3642 23.1811C35.1715 24.3737 33.779 25.2307 32.3721 25.7663L32.7577 23.8952C33.7861 23.4525 34.7288 22.8169 35.5215 22.0242C36.8569 20.7244 37.6639 19.0819 37.7853 17.4251C37.921 15.7683 37.3854 14.24 36.2713 13.1259C35.9428 12.8046 35.5715 12.5332 35.1644 12.3261L35.5715 10.3194C36.3713 10.6193 37.1069 11.0764 37.7139 11.6834C38.9993 12.9617 39.6778 14.5685 39.6778 16.3396C39.6778 18.6391 38.4994 21.0672 36.3784 23.1954L36.3642 23.1811ZM40.8561 16.3324C40.8561 14.2329 40.0563 12.3404 38.5351 10.8407C37.7567 10.0766 36.8212 9.4981 35.7857 9.14817L36.257 6.88434C37.771 7.24141 39.1136 7.99126 40.1848 9.06961C44.3411 13.1759 43.5556 20.1603 38.3709 25.3092C36.3713 27.2731 34.0146 28.6586 31.6222 29.287L32.065 27.1017C33.9361 26.5518 35.7 25.4949 37.1783 24.0238C39.535 21.6885 40.8347 18.9391 40.8347 16.3324H40.8561ZM36.5855 17.3322C36.4998 18.7177 35.8071 20.096 34.6859 21.2029C34.2003 21.6814 33.6576 22.0884 33.0648 22.4241L34.9002 13.5473C35.093 13.6687 35.2572 13.8115 35.4358 13.9686C36.2927 14.8327 36.7141 16.0182 36.6141 17.3608L36.5855 17.3322ZM2.0853 33.1005C2.44237 34.0003 2.85657 34.8716 3.32791 35.7143H0L1.13549 30.2368C1.38544 31.208 1.69966 32.165 2.07101 33.0934L2.0853 33.1005ZM5.706 23.1311C5.706 25.8377 6.2059 28.43 7.16999 30.8224C7.877 32.5863 8.84109 34.2289 10.0266 35.7143H4.69906C4.11346 34.7359 3.60642 33.7147 3.18508 32.6506C2.48522 30.9081 2.00674 29.087 1.75679 27.2231L5.35607 9.74091C7.14143 6.47728 9.46239 3.40646 12.2975 0.59988C12.5046 0.392779 12.7046 0.19996 12.9188 0H18.0178C17.0323 0.785557 16.0825 1.62825 15.1898 2.51378C12.1119 5.57746 9.73377 8.94821 8.09838 12.5618C6.52012 16.0396 5.71314 19.6104 5.71314 23.1097L5.706 23.1311ZM15.754 21.3243C15.754 18.6463 16.511 15.954 17.9464 13.4116H20.4959C19.1319 15.6754 18.382 18.1678 18.382 20.603C18.382 21.0244 18.4177 21.4314 18.4677 21.8314H15.7611C15.754 21.6671 15.7469 21.4957 15.7469 21.3314V21.3243H15.754ZM27.823 13.4045C27.5659 13.6044 27.3231 13.8258 27.0946 14.0543C25.5092 15.6326 24.6308 17.5322 24.6308 19.4104C24.6308 20.2817 24.8236 21.1029 25.1807 21.8171H23.0668C22.9026 21.21 22.8169 20.5745 22.8169 19.946C22.8169 17.7179 23.8309 15.3612 25.6163 13.4116H27.8302L27.823 13.4045ZM19.5818 20.5959C19.5818 18.1607 20.4031 15.654 21.9028 13.4116H24.0595C23.4382 14.19 22.924 15.047 22.5169 15.954C21.917 17.2751 21.6242 18.632 21.6242 19.9674C21.6242 20.5887 21.6885 21.2315 21.8314 21.8385H19.6532C19.6104 21.4314 19.5818 21.0244 19.5818 20.5959ZM39.2136 26.1448C44.891 20.5245 45.6766 12.8189 41.0489 8.23407C39.7992 7.00574 38.2566 6.15591 36.5141 5.73457L37.0497 3.11366C39.3993 3.52072 41.5417 4.54195 43.2271 6.22018C45.4838 8.44831 46.7049 11.2192 46.8121 14.3043C46.8406 15.1398 46.7906 15.9754 46.6692 16.8038C46.1194 20.5887 44.0555 24.4094 40.8704 27.5588C38.0852 30.3225 34.5002 32.2436 30.8938 32.9506L31.3866 30.5796C34.1717 29.9726 36.9212 28.4372 39.2422 26.1519L39.2136 26.1448ZM44.084 5.37036C42.6558 3.97063 40.9418 2.94227 38.9708 2.33525C38.428 2.17099 37.871 2.04245 37.314 1.94247L37.6853 0.0142826H41.1632C43.0628 0.69986 44.791 1.7925 46.2336 3.2065C47.7333 4.7062 48.8759 6.42015 49.6258 8.31262H48.0404L47.4762 11.0264L47.4334 10.8478C46.8121 8.79824 45.6766 6.96289 44.0698 5.37036H44.084ZM50.9255 8.31262C50.1257 6.0845 48.8402 4.09204 47.0906 2.37095C46.1622 1.44971 45.1124 0.657011 43.9769 0.0142826H50.4756C52.668 2.34953 54.2106 5.2061 54.9747 8.31262H50.9112H50.9255ZM31.4937 5.59174C29.287 5.99166 27.1446 6.92719 25.2164 8.30548H21.967C24.945 5.47033 28.5086 3.72068 31.9865 3.12795L31.4723 5.59174H31.4937ZM31.2295 6.84149L30.9295 8.30548H27.4302C28.6228 7.64133 29.9012 7.15571 31.2295 6.86291V6.84149ZM11.8619 20.3816C12.2547 16.411 14.0043 12.3761 16.8609 8.77682L15.8825 13.3973H16.5967C15.2612 15.9611 14.5471 18.6606 14.5471 21.3243C14.5471 21.5028 14.5471 21.6528 14.5471 21.8242H14.14L13.0545 27.2446H15.8825C16.4967 28.5157 17.3251 29.6798 18.3249 30.6724C20.2888 32.6149 22.7526 33.8289 25.552 34.2574L25.2592 35.7143H20.3745C18.8462 35.0573 17.4537 34.1146 16.2682 32.9506C12.9688 29.6726 11.412 25.2164 11.8691 20.3674L11.8619 20.3816ZM27.016 27.2731L26.5733 29.4584C25.0164 29.1013 23.5739 28.3443 22.3955 27.266H27.0374L27.0232 27.2803V27.2731H27.016ZM26.3019 30.6153L25.7948 33.1148C23.2239 32.722 20.9744 31.6151 19.189 29.8369C18.4106 29.0728 17.7536 28.2015 17.2251 27.2517H20.753C20.9315 27.4588 21.1101 27.6445 21.2886 27.8302C22.7169 29.2584 24.4094 30.1868 26.3233 30.6153H26.3019ZM42.3844 35.7143H37.3497C39.4707 34.6716 41.4346 33.3433 43.1985 31.7722L42.3844 35.7143ZM50.6827 14.7613C50.6542 15.2255 50.6185 15.6969 50.5685 16.1682C50.2757 18.5249 49.5258 20.8958 48.3546 23.1739H45.6766C46.7906 21.1672 47.5262 19.0676 47.8333 16.9538C47.9404 16.211 47.9904 15.4826 47.9904 14.7613H50.6684H50.6827ZM57.667 0.0142826C58.2241 0.971234 58.7097 1.96389 59.1239 2.99226C59.8023 4.7062 60.2737 6.49156 60.5308 8.31262H56.1959C55.496 5.25609 54.0749 2.4138 52.0539 0.0142826H57.6742H57.667ZM59.0311 0.0142826H62.4661L61.2735 5.83455C60.7878 3.80638 60.038 1.84963 59.0453 0.0142826H59.0311ZM55.5032 14.7613C55.4746 15.0256 55.4532 15.2969 55.4175 15.5612C55.1533 18.1321 54.4534 20.6959 53.3679 23.1739H49.6901C50.7613 20.9458 51.4754 18.6248 51.7397 16.3039C51.8111 15.7968 51.8539 15.2755 51.8825 14.7613H55.496H55.5032ZM56.6101 15.6969C56.6387 15.3826 56.6601 15.0756 56.6958 14.7613H59.1025L57.4099 23.1882H54.6462C55.6746 20.7316 56.3387 18.2178 56.6101 15.6897V15.6969ZM30.6439 34.1717C34.6431 33.5147 38.6423 31.4509 41.7274 28.3729C42.7986 27.316 43.7698 26.1591 44.6196 24.9164L43.6341 29.7155C43.4984 29.8369 43.3699 29.9654 43.2485 30.0868C40.7204 32.5863 37.671 34.5074 34.3217 35.7071H30.3082L30.6296 34.1717H30.6439ZM27.9301 14.8899C28.3943 14.4257 28.9228 14.0258 29.4941 13.6973L27.8444 21.8171H26.5661C26.0734 21.1458 25.8234 20.3245 25.8234 19.4104C25.8234 17.8464 26.559 16.2396 27.9301 14.8899Z" fill="#5B5B5B"/>
</svg>
