<svg width="232" height="28" viewBox="0 0 232 28" fill="none" xmlns="http://www.w3.org/2000/svg">
<path d="M9.75903 21.4399H1.11903V18.3359H9.75903C11.423 18.3359 12.7777 18.0906 13.823 17.5999C14.8897 17.0879 15.679 16.2773 16.191 15.1679C16.703 14.0373 16.959 12.5546 16.959 10.7199C16.959 8.86394 16.703 7.38127 16.191 6.27194C15.679 5.16261 14.8897 4.36261 13.823 3.87194C12.7777 3.35994 11.423 3.10394 9.75903 3.10394H1.11903V-5.91278e-05H9.75903C11.999 -5.91278e-05 13.919 0.437274 15.519 1.31194C17.1404 2.16527 18.3884 3.39194 19.263 4.99194C20.159 6.59194 20.607 8.50127 20.607 10.7199C20.607 12.9386 20.159 14.8479 19.263 16.4479C18.3884 18.0479 17.1404 19.2853 15.519 20.1599C13.919 21.0133 11.999 21.4399 9.75903 21.4399ZM3.42303 21.4399H-0.000968695V-5.91278e-05H3.42303V21.4399ZM31.182 21.7599C29.454 21.7599 27.9394 21.4399 26.638 20.7999C25.3367 20.1599 24.3234 19.2213 23.598 17.9839C22.894 16.7466 22.542 15.2533 22.542 13.5039C22.542 11.8399 22.894 10.3893 23.598 9.15194C24.3234 7.91461 25.326 6.95461 26.606 6.27194C27.886 5.56794 29.39 5.21594 31.118 5.21594C32.7607 5.21594 34.2007 5.51461 35.438 6.11194C36.6967 6.68794 37.6674 7.54127 38.35 8.67194C39.054 9.78127 39.406 11.1466 39.406 12.7679C39.406 13.0453 39.3954 13.3119 39.374 13.5679C39.3527 13.8026 39.3207 14.0373 39.278 14.2719H24.75V12.3519H37.006L36.11 13.5359C36.1314 13.3226 36.142 13.1199 36.142 12.9279C36.142 12.7146 36.142 12.5013 36.142 12.2879C36.142 10.8159 35.7154 9.72794 34.862 9.02394C34.03 8.29861 32.7607 7.93594 31.054 7.93594C29.1554 7.93594 27.8007 8.37327 26.99 9.24794C26.1794 10.1226 25.774 11.3813 25.774 13.0239V13.8559C25.774 15.5199 26.1794 16.7893 26.99 17.6639C27.8007 18.5386 29.166 18.9759 31.086 18.9759C32.75 18.9759 33.9447 18.7199 34.67 18.2079C35.4167 17.6746 35.79 16.9386 35.79 15.9999V15.7439H39.246V16.0319C39.246 17.1626 38.894 18.1653 38.19 19.0399C37.5074 19.8933 36.558 20.5653 35.342 21.0559C34.1474 21.5253 32.7607 21.7599 31.182 21.7599ZM49.5145 21.7599C46.9545 21.7599 44.9705 21.2693 43.5625 20.2879C42.1759 19.3066 41.4825 17.8986 41.4825 16.0639V15.9679H44.9385V16.2239C44.9385 17.2693 45.2799 17.9946 45.9625 18.3999C46.6665 18.7839 47.8505 18.9759 49.5145 18.9759C51.0719 18.9759 52.1279 18.8159 52.6825 18.4959C53.2585 18.1546 53.5465 17.6319 53.5465 16.9279C53.5465 16.2666 53.3225 15.7973 52.8745 15.5199C52.4479 15.2426 51.6585 15.0293 50.5065 14.8799L46.1545 14.3039C44.6399 14.1119 43.4559 13.6853 42.6025 13.0239C41.7492 12.3413 41.3225 11.3279 41.3225 9.98394C41.3225 9.04527 41.5999 8.22394 42.1545 7.51994C42.7092 6.79461 43.5412 6.22927 44.6505 5.82394C45.7599 5.41861 47.1252 5.21594 48.7465 5.21594C50.3679 5.21594 51.7545 5.42927 52.9065 5.85594C54.0799 6.28261 54.9759 6.92261 55.5945 7.77594C56.2345 8.62927 56.5545 9.68527 56.5545 10.9439V11.0399H53.1305V10.8479C53.1305 10.2293 53.0025 9.70661 52.7465 9.27994C52.4905 8.85327 52.0319 8.53327 51.3705 8.31994C50.7305 8.08527 49.8239 7.96794 48.6505 7.96794C47.1785 7.96794 46.1545 8.13861 45.5785 8.47994C45.0025 8.82127 44.7145 9.36527 44.7145 10.1119C44.7145 10.7306 44.9279 11.1786 45.3545 11.4559C45.7812 11.7333 46.5812 11.9573 47.7545 12.1279L51.4345 12.6399C53.3119 12.8746 54.6985 13.3333 55.5945 14.0159C56.4905 14.6986 56.9385 15.7013 56.9385 17.0239C56.9385 18.0053 56.6292 18.8586 56.0105 19.5839C55.3919 20.2879 54.5279 20.8319 53.4185 21.2159C52.3092 21.5786 51.0079 21.7599 49.5145 21.7599ZM62.888 21.4399H59.432V5.53594H62.888V21.4399ZM62.888 3.67994H59.432V-5.91278e-05H62.888V3.67994ZM74.4403 27.1999C72.8616 27.1999 71.4749 26.9546 70.2803 26.4639C69.0856 25.9946 68.1469 25.3119 67.4643 24.4159C66.8029 23.5199 66.4723 22.4319 66.4723 21.1519H69.8963C69.8963 21.9199 70.0563 22.5386 70.3763 23.0079C70.6963 23.4773 71.1976 23.8079 71.8803 23.9999C72.5843 24.2133 73.5016 24.3199 74.6323 24.3199C75.8483 24.3199 76.8083 24.1813 77.5123 23.9039C78.2376 23.6479 78.7603 23.1893 79.0803 22.5279C79.4003 21.8666 79.5603 20.9493 79.5603 19.7759V10.4639L79.8163 10.2399V5.53594H82.9843V19.5839C82.9843 21.3546 82.6323 22.7946 81.9283 23.9039C81.2243 25.0346 80.2323 25.8666 78.9523 26.3999C77.6723 26.9333 76.1683 27.1999 74.4403 27.1999ZM73.0003 19.9999C71.4216 19.9999 70.0669 19.6906 68.9363 19.0719C67.8269 18.4533 66.9629 17.5893 66.3443 16.4799C65.7469 15.3706 65.4483 14.0799 65.4483 12.6079C65.4483 11.1359 65.7576 9.84527 66.3763 8.73594C67.0163 7.62661 67.9123 6.76261 69.0643 6.14394C70.2376 5.52527 71.6243 5.21594 73.2243 5.21594C74.8883 5.21594 76.2963 5.58927 77.4483 6.33594C78.6216 7.06127 79.3469 8.11727 79.6243 9.50394H80.3603L80.1683 12.2879H79.5603C79.5603 11.3919 79.3469 10.6453 78.9203 10.0479C78.4936 9.42927 77.8856 8.97061 77.0963 8.67194C76.3069 8.37327 75.3469 8.22394 74.2163 8.22394C73.1283 8.22394 72.1789 8.36261 71.3683 8.63994C70.5789 8.91727 69.9709 9.37594 69.5443 10.0159C69.1389 10.6346 68.9363 11.4986 68.9363 12.6079C68.9363 13.6959 69.1389 14.5599 69.5443 15.1999C69.9496 15.8399 70.5363 16.3093 71.3043 16.6079C72.0936 16.8853 73.0323 17.0239 74.1203 17.0239C75.8696 17.0239 77.2136 16.6613 78.1523 15.9359C79.0909 15.2106 79.5603 14.1439 79.5603 12.7359H80.1683V15.8719H79.3363C79.0589 17.0879 78.3869 18.0799 77.3203 18.8479C76.2536 19.6159 74.8136 19.9999 73.0003 19.9999ZM102.79 21.4399H99.334V12.7999C99.334 11.3066 98.9714 10.1866 98.246 9.43994C97.542 8.69327 96.358 8.31994 94.694 8.31994C92.966 8.31994 91.686 8.76794 90.854 9.66394C90.0434 10.5386 89.638 11.8399 89.638 13.5679L89.03 13.5999L88.87 10.4639H89.574C89.7447 9.56794 90.086 8.72527 90.598 7.93594C91.1314 7.12527 91.8567 6.47461 92.774 5.98394C93.7127 5.47194 94.854 5.21594 96.198 5.21594C97.67 5.21594 98.8967 5.51461 99.878 6.11194C100.859 6.70927 101.585 7.50927 102.054 8.51194C102.545 9.51461 102.79 10.6346 102.79 11.8719V21.4399ZM89.638 21.4399H86.182V5.53594H89.35V10.5279L89.638 10.6879V21.4399ZM113.87 21.7599C112.142 21.7599 110.627 21.4399 109.326 20.7999C108.024 20.1599 107.011 19.2213 106.286 17.9839C105.582 16.7466 105.23 15.2533 105.23 13.5039C105.23 11.8399 105.582 10.3893 106.286 9.15194C107.011 7.91461 108.014 6.95461 109.294 6.27194C110.574 5.56794 112.078 5.21594 113.806 5.21594C115.448 5.21594 116.888 5.51461 118.126 6.11194C119.384 6.68794 120.355 7.54127 121.038 8.67194C121.742 9.78127 122.094 11.1466 122.094 12.7679C122.094 13.0453 122.083 13.3119 122.062 13.5679C122.04 13.8026 122.008 14.0373 121.966 14.2719H107.438V12.3519H119.694L118.798 13.5359C118.819 13.3226 118.83 13.1199 118.83 12.9279C118.83 12.7146 118.83 12.5013 118.83 12.2879C118.83 10.8159 118.403 9.72794 117.55 9.02394C116.718 8.29861 115.448 7.93594 113.742 7.93594C111.843 7.93594 110.488 8.37327 109.678 9.24794C108.867 10.1226 108.462 11.3813 108.462 13.0239V13.8559C108.462 15.5199 108.867 16.7893 109.678 17.6639C110.488 18.5386 111.854 18.9759 113.774 18.9759C115.438 18.9759 116.632 18.7199 117.358 18.2079C118.104 17.6746 118.478 16.9386 118.478 15.9999V15.7439H121.934V16.0319C121.934 17.1626 121.582 18.1653 120.878 19.0399C120.195 19.8933 119.246 20.5653 118.03 21.0559C116.835 21.5253 115.448 21.7599 113.87 21.7599ZM128.138 21.4399H124.682V5.53594H127.85V10.0479L128.138 10.2079V21.4399ZM128.138 12.5119H127.37V9.82394H128.074C128.223 8.94927 128.522 8.17061 128.97 7.48794C129.418 6.78394 130.015 6.22927 130.762 5.82394C131.53 5.41861 132.458 5.21594 133.546 5.21594C134.762 5.21594 135.754 5.47194 136.522 5.98394C137.29 6.49594 137.845 7.17861 138.186 8.03194C138.549 8.88527 138.73 9.81327 138.73 10.8159V12.8959H135.306V11.4879C135.306 10.3359 135.05 9.49327 134.538 8.95994C134.026 8.42661 133.173 8.15994 131.978 8.15994C130.613 8.15994 129.631 8.53327 129.034 9.27994C128.437 10.0266 128.138 11.1039 128.138 12.5119ZM151.141 23.9359H139.621V21.4399H151.141V23.9359ZM155.617 26.8799H153.345V23.7439H156.449C157.153 23.7439 157.676 23.6266 158.017 23.3919C158.38 23.1786 158.678 22.8053 158.913 22.2719L159.905 20.1279L159.521 21.8879L151.457 5.53594H155.329L159.393 13.9839L160.961 17.7919H161.217L162.721 13.9519L166.465 5.53594H170.273L161.985 23.1679C161.558 24.1066 161.057 24.8426 160.481 25.3759C159.905 25.9306 159.222 26.3146 158.433 26.5279C157.644 26.7626 156.705 26.8799 155.617 26.8799ZM175.419 21.4399H171.963V5.53594H175.419V21.4399ZM175.419 3.67994H171.963V-5.91278e-05H175.419V3.67994ZM195.228 21.4399H191.772V12.7999C191.772 11.3066 191.409 10.1866 190.684 9.43994C189.98 8.69327 188.796 8.31994 187.132 8.31994C185.404 8.31994 184.124 8.76794 183.292 9.66394C182.481 10.5386 182.076 11.8399 182.076 13.5679L181.468 13.5999L181.308 10.4639H182.012C182.182 9.56794 182.524 8.72527 183.036 7.93594C183.569 7.12527 184.294 6.47461 185.212 5.98394C186.15 5.47194 187.292 5.21594 188.636 5.21594C190.108 5.21594 191.334 5.51461 192.316 6.11194C193.297 6.70927 194.022 7.50927 194.492 8.51194C194.982 9.51461 195.228 10.6346 195.228 11.8719V21.4399ZM182.076 21.4399H178.62V5.53594H181.788V10.5279L182.076 10.6879V21.4399ZM215.075 21.4399H211.011L206.307 14.9439H200.227V11.8399H206.307L211.075 5.53594H215.107L209.123 13.1839L215.075 21.4399ZM201.763 21.4399H198.307V-5.91278e-05H201.763V21.4399ZM231.847 21.4399H228.679V17.3439L228.455 17.2479V11.8079C228.455 10.4853 228.135 9.56794 227.495 9.05594C226.876 8.52261 225.799 8.25594 224.263 8.25594C222.791 8.25594 221.692 8.51194 220.967 9.02394C220.242 9.53594 219.879 10.3786 219.879 11.5519V11.6799H216.455V11.5519C216.455 10.3359 216.775 9.25861 217.415 8.31994C218.055 7.35994 218.972 6.60261 220.167 6.04794C221.383 5.49327 222.834 5.21594 224.519 5.21594C226.204 5.21594 227.58 5.50394 228.647 6.07994C229.735 6.63461 230.535 7.40261 231.047 8.38394C231.58 9.36527 231.847 10.4959 231.847 11.7759V21.4399ZM221.479 21.7599C219.836 21.7599 218.524 21.3973 217.543 20.6719C216.583 19.9253 216.103 18.9013 216.103 17.5999C216.103 16.7679 216.306 16.0746 216.711 15.5199C217.138 14.9439 217.735 14.4959 218.503 14.1759C219.271 13.8559 220.178 13.6319 221.223 13.5039L228.775 12.7039V14.7519L222.215 15.4879C221.319 15.5946 220.647 15.7866 220.199 16.0639C219.772 16.3199 219.559 16.7573 219.559 17.3759C219.559 18.0159 219.783 18.4959 220.231 18.8159C220.7 19.1146 221.426 19.2639 222.407 19.2639C223.623 19.2639 224.679 19.1146 225.575 18.8159C226.471 18.4959 227.175 18.0053 227.687 17.3439C228.199 16.6826 228.455 15.8293 228.455 14.7839L228.903 14.8479V17.4719H228.455C228.028 18.8159 227.207 19.8719 225.991 20.6399C224.796 21.3866 223.292 21.7599 221.479 21.7599Z" fill="white"/>
</svg>
