<svg width="106" height="40" viewBox="0 0 106 40" fill="none" xmlns="http://www.w3.org/2000/svg">
<path d="M21.7511 5.47962C20.2 4.06783 18.5525 3.43159 16.8086 3.57092C12.1344 3.94708 10.8666 9.98667 14.4193 12.5746C16.5126 14.1001 20.4206 13.7031 21.3714 10.833C21.4109 10.7146 21.3679 10.6554 21.2426 10.6554H17.5888C17.4727 10.6554 17.4147 10.5974 17.4147 10.4813V7.78887C17.4147 7.67742 17.4704 7.62053 17.5819 7.61821L24.837 7.57989C24.9648 7.57989 25.0356 7.64259 25.0495 7.76798C25.8332 14.6296 19.4801 18.743 13.4371 16.1133C7.5786 13.5603 6.92727 5.30895 12.0961 1.58558C15.6627 -0.981415 21.6222 -0.504239 24.2171 3.55002C24.2774 3.64058 24.2647 3.71953 24.1788 3.78686C23.3846 4.39756 22.5905 4.96297 21.7964 5.4831C21.7889 5.48715 21.7806 5.48899 21.7726 5.48837C21.7645 5.48775 21.757 5.4847 21.7511 5.47962Z" fill="#5B5B5B"/>
<path d="M62.4806 15.4548C61.8165 16.1584 61.0456 16.5903 60.1679 16.7505C52.0873 18.2377 50.9518 4.19413 60.0913 4.37873C60.9226 4.39499 61.8351 4.83385 62.8289 5.69532C62.8476 5.71126 62.8705 5.72152 62.8948 5.72489C62.9192 5.72826 62.944 5.72461 62.9663 5.71436C62.9886 5.70411 63.0076 5.6877 63.0209 5.66704C63.0342 5.64639 63.0413 5.62236 63.0414 5.5978V0.425486C63.0414 0.367289 63.0645 0.311476 63.1057 0.270325C63.1468 0.229173 63.2027 0.206055 63.2608 0.206055H66.4583C66.5906 0.206055 66.6556 0.272232 66.6533 0.404588L66.2667 16.4475C66.2644 16.5914 66.1901 16.6634 66.0438 16.6634H62.9195C62.7779 16.6634 62.7047 16.5937 62.7001 16.4544L62.6722 15.5245C62.6722 15.5027 62.6654 15.4817 62.6529 15.464C62.6404 15.4464 62.6227 15.4329 62.6021 15.4254C62.5815 15.4179 62.5589 15.4167 62.5372 15.422C62.5156 15.4272 62.4959 15.4386 62.4806 15.4548ZM63.1703 10.6203C63.1703 9.83422 62.858 9.0803 62.3021 8.52443C61.7463 7.96856 60.9923 7.65627 60.2062 7.65627C59.4201 7.65627 58.6662 7.96856 58.1103 8.52443C57.5544 9.0803 57.2422 9.83422 57.2422 10.6203C57.2422 11.4065 57.5544 12.1604 58.1103 12.7162C58.6662 13.2721 59.4201 13.5844 60.2062 13.5844C60.9923 13.5844 61.7463 13.2721 62.3021 12.7162C62.858 12.1604 63.1703 11.4065 63.1703 10.6203Z" fill="#5B5B5B"/>
<path d="M0 2.61982V2.44219L0.874242 2.38994C0.988022 2.3853 1.04491 2.4387 1.04491 2.55016V4.08618C1.04491 4.23247 1.11805 4.31374 1.26434 4.32999L2.02713 4.40314C2.0574 4.40555 2.08785 4.40176 2.11653 4.39199C2.14522 4.38222 2.17153 4.3667 2.19379 4.3464C2.21606 4.3261 2.23379 4.30147 2.24587 4.27407C2.25795 4.24666 2.26412 4.21708 2.26397 4.18719V3.13531C2.26559 3.01629 2.30978 2.90179 2.38853 2.81254C2.46729 2.72329 2.5754 2.66519 2.69329 2.64877C2.81118 2.63235 2.93106 2.65869 3.0312 2.72302C3.13135 2.78736 3.20514 2.88543 3.23922 2.99947C3.32978 3.31759 3.33094 3.71117 3.24271 4.18022C3.21717 4.31722 3.27406 4.38572 3.41338 4.38572H4.30852C4.4548 4.38572 4.52795 4.31374 4.52795 4.16977V2.51533C4.52795 2.36904 4.60109 2.2959 4.74738 2.2959H5.30467C5.41612 2.2959 5.47301 2.35163 5.47533 2.46308L5.51017 5.253C5.51017 5.37142 5.45211 5.43063 5.33601 5.43063H0.264711C0.146288 5.43063 0.0847539 5.37026 0.0801099 5.24951L0 2.61982Z" fill="#5B5B5B"/>
<path d="M38.8871 8.76953C39.1215 9.55591 39.1933 10.3824 39.0984 11.2018C39.0035 12.0211 38.7437 12.8174 38.3339 13.545C37.9241 14.2726 37.3723 14.9174 36.7099 15.4425C36.0476 15.9677 35.2878 16.3628 34.4738 16.6055C33.6598 16.8482 32.8076 16.9336 31.9659 16.8568C31.1241 16.7801 30.3093 16.5427 29.568 16.1582C28.8266 15.7738 28.1733 15.2497 27.6452 14.6161C27.1171 13.9824 26.7246 13.2515 26.4902 12.4652C26.2558 11.6788 26.184 10.8523 26.2789 10.0329C26.3738 9.21357 26.6336 8.41733 27.0434 7.6897C27.4532 6.96206 28.0051 6.31727 28.6674 5.79215C29.3297 5.26703 30.0895 4.87186 30.9035 4.62921C31.7175 4.38655 32.5697 4.30115 33.4115 4.37789C34.2532 4.45464 35.068 4.69202 35.8094 5.07648C36.5507 5.46095 37.2041 5.98497 37.7321 6.61862C38.2602 7.25227 38.6527 7.98315 38.8871 8.76953ZM32.7203 13.5744C33.0885 13.577 33.4536 13.5033 33.7949 13.3576C34.1361 13.2119 34.4467 12.997 34.7089 12.7252C34.9712 12.4534 35.18 12.13 35.3234 11.7735C35.4668 11.417 35.542 11.0343 35.5447 10.6474C35.5501 9.86589 35.26 9.11436 34.738 8.5581C34.2161 8.00184 33.5051 7.68641 32.7615 7.68122C32.3933 7.67865 32.0282 7.75232 31.687 7.89802C31.3458 8.04372 31.0352 8.25861 30.7729 8.53041C30.5106 8.8022 30.3018 9.12559 30.1584 9.48211C30.015 9.83862 29.9398 10.2213 29.9371 10.6082C29.9317 11.3897 30.2218 12.1412 30.7438 12.6975C31.2657 13.2538 31.9767 13.5692 32.7203 13.5744Z" fill="#5B5B5B"/>
<path d="M51.8772 31.9439L56.8127 38.3596C56.8963 38.4664 56.8707 38.5198 56.7361 38.5198H53.0823C52.9546 38.5198 52.8513 38.4699 52.7724 38.3701L49.6829 34.4551C49.6597 34.4262 49.6306 34.4027 49.5975 34.3861C49.5644 34.3694 49.5281 34.3601 49.491 34.3588C49.454 34.3575 49.4172 34.3642 49.3829 34.3784C49.3487 34.3926 49.318 34.414 49.2928 34.4412L48.2792 35.5418C48.1987 35.629 48.1539 35.7447 48.1539 35.8658V38.4084C48.1539 38.5059 48.1051 38.5535 48.0076 38.5512L44.7509 38.5059C44.6395 38.5036 44.5837 38.4467 44.5837 38.3352L44.5733 16.9076C44.5733 16.7892 44.5164 16.7137 44.4026 16.6812C41.9645 15.966 40.5434 14.4242 40.1394 12.0557C38.4501 2.143 53.6013 1.95143 52.741 11.1641C52.4949 13.7996 50.9705 15.598 48.1678 16.5593C48.0447 16.6011 47.9843 16.687 47.9867 16.817L48.1782 30.7492C48.1779 30.7728 48.1848 30.7959 48.1981 30.8154C48.2114 30.8349 48.2303 30.8499 48.2524 30.8583C48.2745 30.8666 48.2986 30.868 48.3214 30.8622C48.3443 30.8564 48.3648 30.8437 48.3802 30.8258L52.0165 26.6044C52.0438 26.5737 52.0768 26.5492 52.1135 26.5324C52.1501 26.5156 52.1895 26.5069 52.229 26.5068L56.1544 26.5208C56.361 26.5208 56.3947 26.5974 56.2554 26.7507L51.8946 31.5781C51.8496 31.6281 51.8233 31.6919 51.8201 31.7587C51.8169 31.8254 51.8371 31.8909 51.8772 31.9439ZM46.4397 13.5672C46.8084 13.5633 47.1726 13.4832 47.5117 13.3314C47.8507 13.1796 48.1579 12.959 48.4157 12.6824C48.6735 12.4057 48.8768 12.0784 49.0142 11.719C49.1515 11.3596 49.2201 10.9752 49.216 10.5878C49.212 10.2004 49.1354 9.81759 48.9905 9.46116C48.8457 9.10473 48.6355 8.78169 48.372 8.5105C48.1084 8.2393 47.7967 8.02525 47.4546 7.88056C47.1124 7.73588 46.7466 7.6634 46.378 7.66727C46.0093 7.67113 45.6451 7.75125 45.306 7.90306C44.967 8.05488 44.6598 8.27541 44.402 8.55207C44.1442 8.82873 43.9409 9.1561 43.8035 9.51548C43.6662 9.87486 43.5976 10.2592 43.6017 10.6466C43.6057 11.034 43.6823 11.4169 43.8272 11.7733C43.972 12.1297 44.1822 12.4528 44.4457 12.724C44.7093 12.9952 45.021 13.2092 45.3631 13.3539C45.7053 13.4986 46.0711 13.571 46.4397 13.5672Z" fill="#5B5B5B"/>
<path d="M2.30463 10.22L2.37081 8.34963C2.37129 8.33029 2.36783 8.31105 2.36065 8.29309C2.35347 8.27512 2.34271 8.25881 2.32903 8.24513C2.31535 8.23145 2.29903 8.22069 2.28106 8.2135C2.2631 8.20632 2.24386 8.20286 2.22452 8.20334L0.232225 8.24514C0.213181 8.2456 0.194236 8.24225 0.176506 8.23528C0.158776 8.22832 0.14262 8.21787 0.128988 8.20456C0.115356 8.19126 0.104525 8.17536 0.0971312 8.1578C0.0897378 8.14024 0.0859318 8.12138 0.0859375 8.10233V7.31517C0.0859375 7.27729 0.100983 7.24097 0.127764 7.21419C0.154545 7.18741 0.190868 7.17236 0.228742 7.17236H5.34184C5.37971 7.17236 5.41604 7.18741 5.44282 7.21419C5.4696 7.24097 5.48465 7.27729 5.48465 7.31517V8.11975C5.48465 8.1388 5.48084 8.15766 5.47345 8.17522C5.46606 8.19277 5.45523 8.20867 5.4416 8.22198C5.42796 8.23529 5.41181 8.24573 5.39408 8.2527C5.37635 8.25967 5.3574 8.26302 5.33836 8.26255L3.45403 8.22772C3.43499 8.22726 3.41605 8.23061 3.39832 8.23758C3.38059 8.24455 3.36443 8.25499 3.3508 8.2683C3.33717 8.28161 3.32633 8.29751 3.31894 8.31506C3.31155 8.33262 3.30774 8.35148 3.30775 8.37053V10.2514C3.30775 10.2892 3.32279 10.3256 3.34957 10.3523C3.37635 10.3791 3.41268 10.3942 3.45055 10.3942H5.33836C5.37449 10.3941 5.40931 10.4077 5.43581 10.4322C5.46231 10.4568 5.47852 10.4905 5.48116 10.5265L5.54037 11.3729C5.54181 11.3925 5.53919 11.4122 5.53266 11.4308C5.52613 11.4493 5.51584 11.4663 5.50243 11.4807C5.48902 11.4951 5.47279 11.5066 5.45474 11.5144C5.4367 11.5222 5.41724 11.5262 5.39757 11.5262H0.228742C0.190868 11.5262 0.154545 11.5111 0.127764 11.4843C0.100983 11.4576 0.0859375 11.4212 0.0859375 11.3834V10.537C0.0859264 10.4997 0.100493 10.4639 0.126525 10.4372C0.152557 10.4105 0.187992 10.3951 0.225259 10.3942L2.16531 10.3593C2.20198 10.3585 2.23691 10.3435 2.26285 10.3176C2.28879 10.2916 2.30375 10.2567 2.30463 10.22Z" fill="#5B5B5B"/>
<path d="M5.55082 14.5217C5.58101 14.5983 5.58914 14.6656 5.5752 14.7237C5.54966 14.8491 5.4742 14.9118 5.34881 14.9118L1.29455 14.9431C1.12737 14.9431 1.04377 15.0267 1.04377 15.1939V16.1413C1.04377 16.2574 0.985722 16.3154 0.869621 16.3154H0.260089C0.143988 16.3154 0.0859375 16.2574 0.0859375 16.1413V12.7662C0.0859375 12.6014 0.167208 12.5329 0.32975 12.5607L0.803443 12.6374C0.926511 12.6559 0.996171 12.7279 1.01243 12.8533L1.13085 13.745C1.1471 13.8704 1.21909 13.9342 1.3468 13.9365L5.31049 13.9783C5.44749 13.9783 5.52992 14.0457 5.55779 14.1803C5.56708 14.2291 5.56359 14.2802 5.54734 14.3336C5.52709 14.3946 5.52832 14.4609 5.55082 14.5217Z" fill="#5B5B5B"/>
<path d="M9.58936 33.5459L14.3158 22.3201C14.3646 22.2063 14.4505 22.1494 14.5736 22.1494H18.2412C18.3875 22.1494 18.4607 22.2226 18.4607 22.3688V38.3351C18.4607 38.4071 18.432 38.4762 18.3811 38.5272C18.3301 38.5781 18.261 38.6068 18.189 38.6068H15.0647C14.9723 38.6068 14.8837 38.5701 14.8184 38.5048C14.7531 38.4394 14.7164 38.3508 14.7164 38.2585V29.4812C14.7164 29.1933 14.6618 29.1828 14.5527 29.4499L10.8572 38.4814C10.82 38.5719 10.7527 38.6161 10.6552 38.6137L8.28671 38.5545C8.16364 38.5499 8.07888 38.4907 8.03244 38.3769L4.33346 29.3872C4.3257 29.3689 4.31193 29.3538 4.29444 29.3444C4.27694 29.3351 4.25677 29.332 4.23726 29.3356C4.21775 29.3393 4.20008 29.3495 4.18717 29.3646C4.17425 29.3796 4.16688 29.3987 4.16627 29.4185L4.18717 38.2271C4.18717 38.3075 4.15524 38.3846 4.09842 38.4414C4.04159 38.4982 3.96451 38.5301 3.88415 38.5301L0.697166 38.5406C0.583387 38.5406 0.526497 38.4825 0.526497 38.3664L0.519531 22.3688C0.519531 22.2226 0.592675 22.1494 0.738963 22.1494H4.34042C4.46117 22.1494 4.54476 22.2051 4.5912 22.3166L9.34555 33.5459C9.42914 33.7386 9.51041 33.7386 9.58936 33.5459Z" fill="#5B5B5B"/>
<path d="M74.5377 26.5241L76.7076 26.4963C76.8284 26.4939 76.8888 26.552 76.8888 26.6704V29.2026C76.8888 29.3187 76.8307 29.3767 76.7146 29.3767H74.5516C74.506 29.3767 74.4623 29.3946 74.4297 29.4265C74.3971 29.4584 74.3784 29.5018 74.3775 29.5474C74.3496 31.0451 74.3473 32.5277 74.3705 33.9952C74.3949 35.5626 75.4537 35.5173 76.6972 35.3815C76.8249 35.3676 76.8888 35.4256 76.8888 35.5556V37.7569C76.8888 38.0774 76.7355 38.284 76.429 38.3769C74.576 38.9377 72.1727 38.8088 71.1801 36.914C70.3894 35.4059 70.7865 31.369 70.7969 29.5787C70.7992 29.4441 70.7331 29.3767 70.5984 29.3767H69.1843C69.038 29.3767 68.9648 29.3047 68.9648 29.1608V26.7645C68.9648 26.5903 69.0519 26.5032 69.2261 26.5032H70.6228C70.6464 26.5032 70.6698 26.4986 70.6916 26.4896C70.7133 26.4806 70.7331 26.4675 70.7496 26.451C70.7662 26.4344 70.7792 26.4148 70.7879 26.3933C70.7966 26.3718 70.8009 26.3487 70.8004 26.3256L70.776 23.6262C70.776 23.5125 70.8329 23.4556 70.9467 23.4556H74.1894C74.3055 23.4556 74.3636 23.5136 74.3636 23.6297V26.35C74.3636 26.4661 74.4216 26.5241 74.5377 26.5241Z" fill="#5B5B5B"/>
<path d="M81.3973 34.1628C82.3517 36.3466 85.5352 36.0471 87.2453 35.0092C87.3522 34.9441 87.4485 34.9581 87.5344 35.051L88.7605 36.3571C88.806 36.4056 88.8411 36.4629 88.8635 36.5255C88.8859 36.5881 88.8951 36.6546 88.8905 36.7207C88.8859 36.7869 88.8676 36.8512 88.8369 36.9097C88.8061 36.9683 88.7635 37.0196 88.7117 37.0607C86.9562 38.4562 85.0928 38.9984 83.1214 38.6872C76.636 37.6667 75.8732 28.8999 81.6063 26.6952C86.4721 24.8213 90.5856 28.785 89.781 33.7448C89.7711 33.8059 89.7401 33.8616 89.6935 33.9018C89.6469 33.9419 89.5878 33.9641 89.5267 33.9642L81.4983 34.006C81.3845 34.006 81.3509 34.0583 81.3973 34.1628ZM81.3451 31.3032L86.4512 31.2823C86.4614 31.2823 86.4711 31.2783 86.4783 31.2711C86.4855 31.2639 86.4895 31.2542 86.4895 31.244V31.2266C86.4873 30.7409 86.2163 30.2762 85.7363 29.9346C85.2562 29.593 84.6063 29.4025 83.9295 29.405H83.8529C83.5175 29.4062 83.1855 29.4548 82.876 29.5481C82.5665 29.6414 82.2855 29.7774 82.049 29.9485C81.8126 30.1197 81.6253 30.3224 81.498 30.5453C81.3706 30.7682 81.3056 31.0068 81.3068 31.2475V31.2649C81.3068 31.2751 81.3108 31.2848 81.318 31.292C81.3252 31.2992 81.3349 31.3032 81.3451 31.3032Z" fill="#5B5B5B"/>
<path d="M95.1716 28.9655C95.7823 27.1752 97.0455 26.2847 98.9612 26.294C99.109 26.2949 99.2506 26.3538 99.3555 26.458C99.4603 26.5622 99.5201 26.7035 99.5219 26.8513L99.5463 29.5681C99.5486 29.6586 99.5045 29.7074 99.414 29.7144C96.3802 29.9512 95.0427 30.7837 95.0079 34.0298C94.9916 35.4974 94.9916 36.9626 95.0079 38.4254C95.0079 38.4509 95.0029 38.4761 94.9932 38.4996C94.9836 38.523 94.9694 38.5443 94.9516 38.5621C94.9337 38.58 94.9126 38.594 94.8894 38.6034C94.8662 38.6129 94.8413 38.6175 94.8163 38.617L91.5458 38.5752C91.4111 38.5729 91.3438 38.5055 91.3438 38.3732V26.6772C91.3438 26.561 91.4018 26.503 91.5179 26.503H94.7815C94.9278 26.503 95.0009 26.5761 95.0009 26.7224V28.9376C95 28.9589 95.0069 28.9798 95.0204 28.9964C95.0338 29.0129 95.0529 29.0239 95.0739 29.0273C95.0949 29.0308 95.1165 29.0264 95.1345 29.015C95.1525 29.0036 95.1657 28.986 95.1716 28.9655Z" fill="#5B5B5B"/>
<path d="M29.2991 27.6213L29.2503 26.7296C29.2434 26.5787 29.3154 26.5032 29.4663 26.5032H32.6951C32.8414 26.5032 32.9145 26.5764 32.9145 26.7227V38.3595C32.9145 38.4826 32.853 38.5441 32.7299 38.5441L29.4245 38.5093C29.313 38.5069 29.2573 38.4501 29.2573 38.3386V37.4818C29.2573 37.3285 29.2016 37.3041 29.0901 37.4086C27.95 38.4884 26.6056 38.9307 25.0568 38.7357C20.8144 38.1993 18.8674 33.6783 20.3547 29.9758C21.7757 26.4475 26.234 24.9707 29.1493 27.6909C29.2561 27.7908 29.3061 27.7676 29.2991 27.6213ZM29.3897 32.5324C29.3897 31.7444 29.0766 30.9887 28.5195 30.4315C27.9623 29.8744 27.2066 29.5613 26.4186 29.5613C25.6307 29.5613 24.875 29.8744 24.3178 30.4315C23.7606 30.9887 23.4476 31.7444 23.4476 32.5324C23.4476 33.3203 23.7606 34.076 24.3178 34.6332C24.875 35.1904 25.6307 35.5034 26.4186 35.5034C27.2066 35.5034 27.9623 35.1904 28.5195 34.6332C29.0766 34.076 29.3897 33.3203 29.3897 32.5324Z" fill="#5B5B5B"/>
<path d="M38.7667 28.8857C39.461 26.9886 40.8496 26.1411 42.9324 26.3431C42.9795 26.3483 43.0231 26.3707 43.0546 26.4061C43.0861 26.4415 43.1034 26.4873 43.1031 26.5347V29.6172C43.1031 29.7472 43.0381 29.8064 42.9081 29.7948C37.4188 29.2584 38.617 35.1273 38.5647 38.3387C38.5624 38.4478 38.5067 38.5036 38.3975 38.5059L35.0991 38.5547C34.9783 38.5547 34.918 38.4943 34.918 38.3735V26.7228C34.918 26.5765 34.99 26.5033 35.1339 26.5033H38.3557C38.502 26.5033 38.5752 26.5753 38.5752 26.7193V28.8509C38.5722 28.8756 38.5787 28.9005 38.5935 28.9205C38.6082 28.9405 38.6301 28.9542 38.6545 28.9586C38.679 28.963 38.7042 28.958 38.7251 28.9444C38.7459 28.9309 38.7608 28.9099 38.7667 28.8857Z" fill="#5B5B5B"/>
<path d="M59.8918 34.2109C61.191 36.2624 63.9287 36.1405 65.8234 35.0259C65.9279 34.9632 66.022 34.9771 66.1056 35.0677L67.4431 36.5201C67.4815 36.5619 67.5019 36.6171 67.5 36.6738C67.498 36.7305 67.4738 36.7841 67.4326 36.8231C64.89 39.2299 61.1597 39.4494 58.4498 37.3317C55.7644 35.2314 55.5415 30.4213 58.0876 28.0076C62.3056 24.0056 69.62 27.4398 68.3034 33.4481C68.2244 33.8103 68.0003 33.9914 67.6311 33.9914H60.0137C59.988 33.9912 59.9627 33.9979 59.9405 34.0108C59.9183 34.0237 59.9 34.0424 59.8875 34.0649C59.875 34.0874 59.8688 34.1128 59.8696 34.1385C59.8703 34.1642 59.878 34.1892 59.8918 34.2109ZM59.9267 31.2921H64.9701C64.9812 31.2921 64.9918 31.2877 64.9996 31.2798C65.0075 31.272 65.0119 31.2614 65.0119 31.2503V31.2364C65.0119 30.7505 64.7458 30.2845 64.2723 29.9409C63.7987 29.5973 63.1564 29.4043 62.4867 29.4043H62.4101C61.7403 29.4043 61.098 29.5973 60.6245 29.9409C60.1509 30.2845 59.8849 30.7505 59.8849 31.2364V31.2503C59.8849 31.2614 59.8893 31.272 59.8971 31.2798C59.9049 31.2877 59.9156 31.2921 59.9267 31.2921Z" fill="#5B5B5B"/>
<ellipse cx="103.099" cy="37.2132" rx="2.78643" ry="2.78643" fill="#5B5B5B"/>
</svg>
