<svg width="133" height="28" viewBox="0 0 133 28" fill="none" xmlns="http://www.w3.org/2000/svg">
<path d="M132.171 4.65254V8.21623L129.041 8.20137C129.017 8.20143 128.994 8.19322 128.975 8.17815C128.957 8.16308 128.944 8.14208 128.94 8.11876C128.744 7.09552 128.182 6.29864 127.253 5.72809C124.064 3.76699 119.868 3.65629 116.443 4.94167C115.058 5.4621 113.624 6.43356 113.276 7.95519C113.268 7.99112 113.272 8.02869 113.289 8.06173C113.305 8.09476 113.332 8.12129 113.365 8.13693L132.171 16.9016V23.7894C128.847 27.4192 123.56 28.3378 118.789 27.7414C114.475 27.2044 109.169 24.8798 108.965 19.7714C108.963 19.7174 108.989 19.6904 109.043 19.6904H113.203C113.252 19.6904 113.281 19.7141 113.291 19.7615C113.722 21.8432 115.866 22.8543 117.672 23.3351C120.858 24.181 124.638 23.9612 127.527 22.243C128.362 21.7463 128.939 21.0507 129.257 20.1563C129.267 20.1293 129.266 20.0996 129.255 20.073C129.244 20.0464 129.224 20.0249 129.198 20.0126L108.957 10.6052C108.945 10.5998 108.935 10.591 108.928 10.5799C108.921 10.5688 108.917 10.5558 108.917 10.5425C108.922 9.31161 108.812 7.88085 109.074 6.78051C110.133 2.34448 115.13 0.543639 119.133 0.110775C123.666 -0.379914 129.325 0.693984 132.171 4.65254Z" fill="#5B5B5B"/>
<path d="M0 27.3746V26.5369V7.8676V4.1106V0.761691V0.515522L4.08412 0.500653C4.15021 0.500653 4.1838 0.534247 4.1849 0.601435L4.21795 16.0854C4.21795 16.1383 4.24218 16.1537 4.29064 16.1317L20.8056 8.45081C20.8337 8.43808 20.8575 8.41759 20.8743 8.3918C20.891 8.366 20.8998 8.33601 20.8997 8.30542V0.566738C20.8997 0.511667 20.9273 0.484131 20.9823 0.484131H24.969C25.0373 0.484131 25.0714 0.518827 25.0714 0.588217V27.3101C25.0714 27.3795 25.0373 27.4142 24.969 27.4142H20.9823C20.9273 27.4142 20.8997 27.3867 20.8997 27.3316V13.0322C20.8997 12.8703 20.8259 12.823 20.6783 12.8901L4.31873 20.4785C4.28364 20.4948 4.25396 20.5208 4.23318 20.5533C4.2124 20.5858 4.20138 20.6234 4.20142 20.6619L4.20638 27.287C4.20638 27.3608 4.16948 27.3977 4.09569 27.3977L0 27.3746Z" fill="#5B5B5B"/>
<path d="M33.1162 25.245L32.2009 27.3829C32.1968 27.3922 32.1901 27.4001 32.1816 27.4057C32.1731 27.4112 32.1632 27.4142 32.153 27.4143H27.7087C27.6999 27.4142 27.6913 27.412 27.6836 27.4078C27.6759 27.4035 27.6694 27.3975 27.6647 27.3901C27.6599 27.3827 27.6571 27.3743 27.6564 27.3655C27.6557 27.3568 27.6572 27.348 27.6608 27.34L39.0689 0.563522C39.073 0.554239 39.0798 0.546344 39.0883 0.540777C39.0968 0.53521 39.1067 0.532207 39.1168 0.53213L45.9667 0.497437C45.977 0.497652 45.9871 0.500898 45.9956 0.506772C46.0041 0.512645 46.0107 0.520888 46.0146 0.530479L57.4359 27.34C57.4395 27.348 57.441 27.3568 57.4403 27.3655C57.4396 27.3743 57.4368 27.3827 57.432 27.3901C57.4273 27.3975 57.4208 27.4035 57.4131 27.4078C57.4054 27.412 57.3968 27.4142 57.388 27.4143H52.9338C52.9236 27.4142 52.9137 27.4112 52.9052 27.4057C52.8967 27.4001 52.89 27.3922 52.8859 27.3829L48.8711 17.9656C48.8683 17.9592 48.8642 17.9534 48.859 17.9485C48.8539 17.9437 48.8478 17.9399 48.8412 17.9374C48.8346 17.935 48.8275 17.9338 48.8205 17.9342C48.8134 17.9345 48.8065 17.9362 48.8001 17.9392L33.1427 25.2186C33.1309 25.2239 33.1215 25.2333 33.1162 25.245ZM42.4938 3.24827L35.5003 19.6591C35.4694 19.7307 35.4893 19.75 35.5597 19.7169L47.2669 14.2913C47.2767 14.2862 47.2842 14.2777 47.2879 14.2675C47.2915 14.2574 47.2911 14.2464 47.2867 14.2367L42.6078 3.24827C42.5693 3.15905 42.5313 3.15905 42.4938 3.24827Z" fill="#5B5B5B"/>
<path d="M53.3418 1.29203C53.251 1.07725 53.099 0.804649 53.0428 0.570043C53.0296 0.51387 53.0516 0.485782 53.1089 0.485782L57.4689 0.484131C57.494 0.484159 57.5185 0.491371 57.5394 0.504876C57.5602 0.518381 57.5765 0.53759 57.5862 0.560131L67.8824 24.7129C67.8858 24.7202 67.8913 24.7264 67.8981 24.7308C67.9048 24.7351 67.9127 24.7374 67.9206 24.7374C67.9285 24.7374 67.9361 24.7351 67.9426 24.7308C67.949 24.7264 67.9539 24.7202 67.9568 24.7129L78.2298 0.586563C78.2497 0.541405 78.2838 0.518827 78.3323 0.518827L82.7848 0.508912C82.7906 0.508647 82.7964 0.509898 82.8015 0.51255C82.8067 0.515202 82.8111 0.519171 82.8144 0.524096C82.8177 0.529021 82.8197 0.534748 82.8203 0.540752C82.8209 0.546757 82.8201 0.552849 82.8179 0.558477L71.4048 27.325C71.3795 27.3845 71.3343 27.4142 71.2693 27.4142H64.5616C64.5315 27.4141 64.5022 27.4053 64.4773 27.3889C64.4523 27.3724 64.4328 27.3491 64.4212 27.3217C60.7258 18.6413 57.0327 9.96473 53.3418 1.29203Z" fill="#5B5B5B"/>
<path d="M99.5538 17.9324L83.8914 25.2167C83.8766 25.2232 83.8648 25.235 83.8584 25.2498L82.9645 27.3745C82.9596 27.3862 82.9514 27.3962 82.9408 27.4033C82.9302 27.4103 82.9178 27.4141 82.9051 27.4141H78.4707C78.4601 27.4141 78.4496 27.4115 78.4403 27.4065C78.4309 27.4015 78.423 27.3942 78.4171 27.3854C78.4112 27.3766 78.4076 27.3664 78.4066 27.3559C78.4055 27.3453 78.4071 27.3347 78.4112 27.3249L89.8276 0.533583C89.8325 0.521841 89.8407 0.511809 89.8513 0.504753C89.8619 0.497697 89.8743 0.49393 89.8871 0.49393L96.6989 0.480713C96.7116 0.480713 96.724 0.484479 96.7346 0.491535C96.7452 0.498592 96.7535 0.508623 96.7584 0.520365L108.168 27.3249C108.172 27.3347 108.174 27.3453 108.173 27.3559C108.172 27.3664 108.168 27.3766 108.162 27.3854C108.156 27.3942 108.148 27.4015 108.139 27.4065C108.13 27.4115 108.119 27.4141 108.109 27.4141H103.687C103.675 27.4141 103.662 27.4103 103.652 27.4033C103.641 27.3962 103.633 27.3862 103.628 27.3745L99.6414 17.9654C99.638 17.9574 99.633 17.9501 99.6267 17.944C99.6204 17.9379 99.6129 17.9332 99.6047 17.9301C99.5965 17.927 99.5878 17.9256 99.579 17.926C99.5703 17.9264 99.5617 17.9286 99.5538 17.9324ZM93.3351 3.21503C93.3315 3.20568 93.3252 3.19764 93.3169 3.19196C93.3086 3.18629 93.2989 3.18326 93.2888 3.18326C93.2788 3.18326 93.269 3.18629 93.2608 3.19196C93.2525 3.19764 93.2462 3.20568 93.2426 3.21503L86.249 19.6473C86.2451 19.6565 86.2441 19.6667 86.2461 19.6764C86.2481 19.6862 86.2529 19.6951 86.2601 19.7021C86.2672 19.709 86.2763 19.7137 86.2861 19.7154C86.2959 19.7171 86.306 19.7159 86.3151 19.7118L97.9991 14.2927C98.0108 14.2873 98.02 14.2775 98.0246 14.2655C98.0292 14.2535 98.029 14.2401 98.0239 14.2283L93.3351 3.21503Z" fill="#5B5B5B"/>
<path d="M35.4985 19.6591L42.492 3.24831C42.5295 3.15909 42.5675 3.15909 42.606 3.24831L47.2849 14.2368C47.2893 14.2464 47.2897 14.2574 47.286 14.2676C47.2823 14.2777 47.2748 14.2862 47.2651 14.2913L35.5579 19.717C35.4874 19.75 35.4676 19.7307 35.4985 19.6591Z" fill="white"/>
<path d="M93.3361 3.21524L98.0249 14.2285C98.0299 14.2403 98.0302 14.2537 98.0256 14.2657C98.0209 14.2778 98.0118 14.2875 98.0001 14.2929L86.3161 19.712C86.307 19.7161 86.2969 19.7174 86.2871 19.7156C86.2773 19.7139 86.2682 19.7093 86.2611 19.7023C86.2539 19.6954 86.2491 19.6864 86.2471 19.6766C86.2451 19.6669 86.2461 19.6567 86.25 19.6475L93.2436 3.21524C93.2472 3.20589 93.2535 3.19785 93.2618 3.19218C93.27 3.18651 93.2798 3.18347 93.2898 3.18347C93.2998 3.18347 93.3096 3.18651 93.3179 3.19218C93.3261 3.19785 93.3325 3.20589 93.3361 3.21524Z" fill="white"/>
<path d="M132.173 8.21629V16.9017L113.367 8.13699C113.333 8.12135 113.306 8.09482 113.29 8.06178C113.274 8.02875 113.269 7.99118 113.277 7.95525C113.626 6.43362 115.06 5.46215 116.444 4.94173C119.869 3.65635 124.066 3.76705 127.255 5.72815C128.183 6.2987 128.745 7.09558 128.941 8.11882C128.946 8.14214 128.959 8.16314 128.977 8.17821C128.995 8.19328 129.018 8.20149 129.042 8.20142L132.173 8.21629Z" fill="white"/>
</svg>
