<svg width="75" height="50" viewBox="0 0 75 50" fill="none" xmlns="http://www.w3.org/2000/svg">
<g clip-path="url(#clip0_2014_2221)">
<path d="M52.7089 1.51664C55.433 0.164538 56.783 0.341973 56.8134 1.71247C56.8498 3.49282 56.5894 5.86035 56.4016 7.57342C55.3906 16.8843 53.7016 24.4925 53.5745 34.0523C58.024 22.4112 61.7532 14.3203 66.5599 4.3554C68.0856 1.18017 69.0602 1.77365 70.3133 1.21076C75.1927 -0.985531 75.3744 0.360372 74.7386 3.04619C72.3716 12.9939 66.3116 44.315 65.3856 49.1379C65.1191 50.5333 63.6179 49.9418 63.2303 49.3961C61.4929 46.9673 59.5315 46.9293 59.7493 45.3142C60.8391 37.2733 64.7619 17.099 65.7851 12.3454C60.5726 23.1447 55.1666 36.6451 52.3879 44.2999C51.8006 45.9253 50.729 45.8061 50.0632 44.6168C49.1248 42.946 47.3027 42.0931 46.9999 40.1188C46.0495 33.8419 48.0897 21.8777 48.3741 14.3086C45.535 22.577 40.7706 38.6297 38.6819 45.8824C37.8224 48.8833 34.9528 48.3938 35.7155 45.469C38.8876 33.2973 45.7226 11.7703 48.6768 4.03112C49.3733 2.20788 51.1954 2.26906 52.7089 1.51664Z" fill="#5B5B5B"/>
<path d="M35.4054 0.0239062C34.4853 -0.202407 31.8155 1.25366 30.1749 1.54115C29.6543 1.63292 29.1578 2.18961 28.9822 2.58737C26.3548 8.68692 23.9999 14.5013 21.9598 19.7982C19.3505 20.2485 16.2995 20.8413 12.8851 21.6164C15.3308 15.2764 17.8008 9.02329 20.2103 3.00941C21.3967 0.0482916 18.2731 -0.233099 17.0622 2.7647C15.4882 6.66187 12.54 13.9636 9.27692 22.4742C6.87959 23.0682 4.33704 23.7473 1.67936 24.5231C-0.251889 25.0865 -0.330489 25.6065 0.504958 26.7769C0.965015 27.4286 1.91548 27.3629 2.3513 27.8273C3.47737 29.0308 4.16146 30.4702 6.17727 30.6881C4.37927 35.5487 2.58129 40.5612 0.952838 45.3876C-0.0702524 48.4171 2.84161 49.0368 3.96164 45.831C5.76568 40.6632 7.66659 35.433 9.62197 30.2182C11.2504 29.8357 15.1914 28.9779 18.8298 28.1802C15.9421 36.1787 14.0411 42.2532 13.3208 45.21C13.1877 45.7789 13.4116 46.0947 13.5327 46.3265C14.5073 47.7599 15.4336 47.8186 16.6867 49.591C17.0258 50.0743 18.164 50.3349 18.5513 49.145C21.2271 40.9769 23.9816 33.3131 26.5484 26.4426C27.6138 26.2071 29.5329 25.739 30.7073 23.9679C32.7958 20.8244 33.3952 21.462 33.8978 20.5064C34.5274 19.3067 34.1096 18.1803 31.8819 18.4586C31.8819 18.4586 31.0404 18.5192 29.4845 18.6984C31.9544 12.2716 34.1157 6.82048 35.6715 2.66651C36.2045 1.25975 36.2711 0.231931 35.4054 0.0239062Z" fill="#5B5B5B"/>
<path d="M31.7619 41.7075C32.337 43.1764 34.135 42.7316 33.4509 40.9587C32.7546 39.1526 31.0233 33.7156 30.5691 31.9641C29.9517 29.6038 32.6275 30.2493 31.2714 31.7923C30.1092 33.1192 29.3342 33.6508 27.1851 36.1739C25.1087 38.6094 25.6717 41.77 27.8934 42.4681C30.3997 43.256 32.6094 40.465 33.9775 38.4174C35.3033 36.4346 34.0198 35.2716 32.682 36.4438C31.8223 37.1975 30.8295 38.355 29.8245 38.979C29.0072 39.4813 28.3655 38.9417 29.4553 37.4257C30.7205 35.6705 32.1371 34.1998 33.1904 32.5412C35.3396 29.161 31.0897 27.2125 29.2615 29.4082C28.2807 30.5786 28.529 31.7276 28.7953 32.7137C29.2252 34.2933 30.8235 39.3357 31.7619 41.7075Z" fill="#5B5B5B"/>
</g>
<defs>
<clipPath id="clip0_2014_2221">
<rect width="75" height="50" fill="white"/>
</clipPath>
</defs>
</svg>
