<svg width="30" height="30" viewBox="0 0 30 30" fill="none" xmlns="http://www.w3.org/2000/svg">
<path d="M29.1874 1.13403C29.1339 0.97337 29.0268 0.86626 28.8661 0.812705C23.0287 -1.27595 16.5483 0.75915 12.9604 5.79323H12.7997L8.19382 6.543C8.08671 6.543 7.9796 6.59655 7.92604 6.70366L0.160665 14.4156C-0.0535549 14.6298 -0.0535549 14.9511 0.160665 15.1653L2.08864 17.1469C2.19575 17.254 2.30286 17.3075 2.46354 17.3075C2.5171 17.3075 2.57065 17.3075 2.62421 17.254L6.9086 15.808L7.44415 16.3435L6.26594 17.5217C6.05172 17.7359 6.05172 18.0573 6.26594 18.2715L7.71194 19.7175L6.64084 21.0563C6.48018 21.2706 6.48018 21.5919 6.6944 21.7525L8.24748 23.3056C8.35458 23.4127 8.51525 23.4663 8.62238 23.4663C8.7295 23.4663 8.8366 23.4127 8.94371 23.3592L10.2826 22.2881L11.7286 23.7341C11.8357 23.8412 11.9428 23.8947 12.1035 23.8947C12.2641 23.8947 12.3712 23.8412 12.4784 23.7341L13.6566 22.5559L14.1921 23.0914L12.7461 27.3758C12.6926 27.59 12.7461 27.8042 12.8532 27.9114L14.7812 29.8393C14.8883 29.9464 15.049 30 15.1561 30C15.2632 30 15.4239 29.9464 15.531 29.8393L23.2429 22.1274C23.2965 22.0739 23.35 21.9668 23.4036 21.8597L24.1534 17.2538V17.0931C24.796 16.6647 25.3851 16.1291 25.9207 15.5936C29.7231 11.8445 30.955 6.16789 29.1875 1.13355L29.1874 1.13403ZM2.62419 16.1294L1.28534 14.7906L8.51534 7.56056L12.1036 6.97144L6.74811 14.7368L2.62419 16.1294ZM7.44396 17.8967L8.2473 17.0934L9.15772 18.0038L8.46152 18.8607L7.44396 17.8967ZM8.67574 22.1811L7.81886 21.3242L14.3524 13.3446L17.5122 12.4877L16.6553 15.6475L8.67574 22.1811ZM12.1033 22.556L11.1393 21.592L11.9961 20.8958L12.9066 21.8062L12.1033 22.556ZM15.1559 28.7149L13.817 27.376L15.2094 23.2524L22.9748 17.8969L22.3857 21.4852L15.1559 28.7149ZM23.4032 16.3436L14.8878 22.2348L12.8528 20.1998L17.4586 16.3973C17.5658 16.3437 17.6193 16.2366 17.6193 16.1295L18.7975 11.8986C18.8511 11.7379 18.7975 11.5237 18.6369 11.363C18.4762 11.2024 18.3155 11.1488 18.1013 11.2024L13.8704 12.3806C13.7633 12.4341 13.6562 12.4877 13.6026 12.5412L9.80012 17.1471L7.76504 15.112L13.6562 6.59672C16.8695 1.88389 22.8677 -0.097557 28.2232 1.72314C29.7763 6.27522 28.5981 11.4165 25.1706 14.7905C24.635 15.3797 24.0458 15.8617 23.4032 16.3436Z" fill="#687671"/>
<path d="M19.9756 3.91885C18.3154 5.57907 18.3154 8.31018 19.9756 9.97047C20.779 10.7738 21.8501 11.2023 23.0282 11.2023C24.2064 11.2023 25.224 10.7738 26.0809 9.97047C26.8842 9.16713 27.3126 8.09603 27.3126 6.91786C27.3126 5.73968 26.8842 4.72212 26.0809 3.86524C24.3671 2.2586 21.6894 2.25865 19.9756 3.91885ZM25.2777 9.22087C24.6885 9.86353 23.8852 10.1849 23.0284 10.1849C22.1715 10.1849 21.3681 9.86353 20.779 9.22087C19.5473 7.98909 19.5473 5.95404 20.779 4.66879C21.4217 4.02613 22.225 3.7048 23.0284 3.7048C23.8317 3.7048 24.6886 4.02613 25.2777 4.66879C25.8668 5.25791 26.2416 6.06122 26.2416 6.9181C26.2416 7.77498 25.9203 8.63175 25.2777 9.22087Z" fill="#687671"/>
<path d="M9.85625 24.0555L7.44629 25.9299L7.66051 24.5375C7.71407 24.3232 7.60696 24.109 7.39274 24.0019C7.23208 23.8948 6.9643 23.8948 6.80362 24.0019L4.39366 25.6086L6.00031 23.1986C6.10742 23.0379 6.10742 22.7702 6.00031 22.6095C5.8932 22.4488 5.67898 22.3417 5.46476 22.3417L4.07234 22.5559L5.94677 20.146C6.10744 19.9318 6.10744 19.5569 5.83966 19.3962C5.62544 19.2355 5.25054 19.2355 5.0899 19.5033L2.41215 22.9843C2.25149 23.145 2.25149 23.4127 2.35859 23.5734C2.4657 23.7876 2.67992 23.8412 2.89414 23.8412L4.39368 23.627L1.98373 27.2687C1.82306 27.4829 1.87662 27.7507 2.03728 27.9649C2.14439 28.072 2.2515 28.1256 2.41218 28.1256C2.51929 28.1256 2.6264 28.072 2.73351 28.0185L6.37525 25.6085L6.16103 27.108C6.10747 27.3223 6.21458 27.5365 6.4288 27.6436C6.64302 27.7507 6.85724 27.7507 7.01792 27.59L10.4989 24.9123C10.7131 24.7516 10.7667 24.3767 10.606 24.1625C10.3918 23.8948 10.0705 23.8412 9.85625 24.0555Z" fill="#687671"/>
</svg>
