<svg width="151" height="17" viewBox="0 0 151 17" fill="none" xmlns="http://www.w3.org/2000/svg">
<path d="M6.45906 13.3999H0.819063V10.6999H6.45906C7.37906 10.6999 8.1124 10.5932 8.65906 10.3799C9.21906 10.1532 9.62573 9.75324 9.87906 9.1799C10.1457 8.59324 10.2791 7.76657 10.2791 6.6999C10.2791 5.6199 10.1457 4.79324 9.87906 4.2199C9.62573 3.64657 9.21906 3.25324 8.65906 3.0399C8.1124 2.81324 7.37906 2.6999 6.45906 2.6999H0.819063V-9.799e-05H6.45906C7.89906 -9.799e-05 9.13906 0.266568 10.1791 0.799901C11.2324 1.33323 12.0457 2.0999 12.6191 3.0999C13.1924 4.0999 13.4791 5.2999 13.4791 6.6999C13.4791 8.0999 13.1924 9.2999 12.6191 10.2999C12.0457 11.2999 11.2324 12.0666 10.1791 12.5999C9.13906 13.1332 7.89906 13.3999 6.45906 13.3999ZM2.99906 13.3999H-0.000937492V-9.799e-05H2.99906V13.3999ZM20.1005 13.5999C18.9938 13.5999 18.0138 13.4132 17.1605 13.0399C16.3071 12.6666 15.6471 12.0932 15.1805 11.3199C14.7138 10.5466 14.4805 9.57324 14.4805 8.3999C14.4805 7.33324 14.7138 6.41324 15.1805 5.6399C15.6471 4.85324 16.2938 4.24657 17.1205 3.8199C17.9605 3.39323 18.9338 3.1799 20.0405 3.1799C21.1338 3.1799 22.0871 3.36657 22.9005 3.7399C23.7271 4.11324 24.3671 4.66657 24.8205 5.3999C25.2738 6.1199 25.5005 6.9999 25.5005 8.0399C25.5005 8.21324 25.4938 8.37324 25.4805 8.5199C25.4671 8.66657 25.4471 8.82657 25.4205 8.9999H16.4205V7.4199H23.3005L22.6205 8.3999C22.6205 8.26657 22.6205 8.1399 22.6205 8.0199C22.6205 7.8999 22.6205 7.7799 22.6205 7.6599C22.6205 6.8999 22.4138 6.35324 22.0005 6.0199C21.5871 5.68657 20.9138 5.5199 19.9805 5.5199C18.9671 5.5199 18.2605 5.7199 17.8605 6.1199C17.4605 6.50657 17.2605 7.12657 17.2605 7.9799V8.7399C17.2605 9.59324 17.4605 10.2199 17.8605 10.6199C18.2605 11.0066 18.9738 11.1999 20.0005 11.1999C20.8805 11.1999 21.5005 11.0866 21.8605 10.8599C22.2205 10.6332 22.4005 10.3066 22.4005 9.8799V9.6799H25.4005V9.8999C25.4005 10.6199 25.1805 11.2599 24.7405 11.8199C24.3005 12.3799 23.6805 12.8199 22.8805 13.1399C22.0938 13.4466 21.1671 13.5999 20.1005 13.5999ZM31.8327 13.5999C30.1527 13.5999 28.8593 13.2866 27.9527 12.6599C27.046 12.0199 26.5927 11.1199 26.5927 9.9599V9.8999H29.5927V10.0799C29.5927 10.5332 29.7527 10.8399 30.0727 10.9999C30.406 11.1466 30.9993 11.2199 31.8527 11.2199C32.6527 11.2199 33.1793 11.1532 33.4327 11.0199C33.6993 10.8732 33.8327 10.6532 33.8327 10.3599C33.8327 10.0799 33.7327 9.88657 33.5327 9.7799C33.3327 9.6599 32.9393 9.5599 32.3527 9.4799L29.5327 9.1399C28.5327 9.03324 27.7593 8.75324 27.2127 8.2999C26.6793 7.84657 26.4127 7.19324 26.4127 6.3399C26.4127 5.75324 26.586 5.22657 26.9327 4.7599C27.2793 4.2799 27.8127 3.8999 28.5327 3.6199C29.266 3.32657 30.206 3.1799 31.3527 3.1799C32.446 3.1799 33.3727 3.3199 34.1327 3.5999C34.906 3.86657 35.4927 4.27324 35.8927 4.8199C36.2927 5.36657 36.4927 6.04657 36.4927 6.8599V6.9199H33.4927V6.7999C33.4927 6.5199 33.4327 6.29324 33.3127 6.1199C33.206 5.93324 32.986 5.79324 32.6527 5.6999C32.3327 5.60657 31.866 5.5599 31.2527 5.5599C30.506 5.5599 30.006 5.63324 29.7527 5.7799C29.4993 5.91324 29.3727 6.1399 29.3727 6.4599C29.3727 6.71324 29.4727 6.90657 29.6727 7.0399C29.886 7.1599 30.3193 7.26657 30.9727 7.3599L33.1127 7.6199C34.446 7.76657 35.3927 8.07324 35.9527 8.5399C36.5127 9.00657 36.7927 9.65324 36.7927 10.4799C36.7927 11.1066 36.5927 11.6532 36.1927 12.1199C35.7927 12.5866 35.226 12.9532 34.4927 13.2199C33.7593 13.4732 32.8727 13.5999 31.8327 13.5999ZM41.0031 13.3999H38.0031V3.3799H41.0031V13.3999ZM41.0031 2.3599H38.0031V-9.799e-05H41.0031V2.3599ZM48.1734 16.9999C47.0934 16.9999 46.1534 16.8399 45.3534 16.5199C44.5668 16.2132 43.9601 15.7666 43.5334 15.1799C43.1068 14.5932 42.8934 13.8799 42.8934 13.0399H45.8934C45.8934 13.3999 45.9534 13.6866 46.0734 13.8999C46.2068 14.1266 46.4534 14.2799 46.8134 14.3599C47.1734 14.4532 47.6934 14.4999 48.3734 14.4999C49.0134 14.4999 49.5134 14.4399 49.8734 14.3199C50.2468 14.1999 50.5068 13.9666 50.6534 13.6199C50.8001 13.2866 50.8734 12.7932 50.8734 12.1399V6.1399L51.0734 6.0799V3.3799H53.8734V11.9399C53.8734 13.1132 53.6468 14.0666 53.1934 14.7999C52.7401 15.5466 52.0868 16.0999 51.2334 16.4599C50.3934 16.8199 49.3734 16.9999 48.1734 16.9999ZM46.9734 12.3799C45.9734 12.3799 45.1268 12.1932 44.4334 11.8199C43.7401 11.4466 43.2068 10.9132 42.8334 10.2199C42.4601 9.52657 42.2734 8.71324 42.2734 7.7799C42.2734 6.84657 42.4668 6.0399 42.8534 5.3599C43.2401 4.66657 43.7934 4.13324 44.5134 3.7599C45.2334 3.37324 46.0934 3.1799 47.0934 3.1799C48.1201 3.1799 48.9734 3.3999 49.6534 3.8399C50.3334 4.2799 50.7534 4.93324 50.9134 5.7999H51.4734L51.2534 7.6599H50.8734C50.8734 7.20657 50.7668 6.84657 50.5534 6.5799C50.3401 6.2999 50.0268 6.0999 49.6134 5.9799C49.2001 5.84657 48.6801 5.7799 48.0534 5.7799C47.4134 5.7799 46.8868 5.84657 46.4734 5.9799C46.0734 6.0999 45.7734 6.30657 45.5734 6.5999C45.3868 6.8799 45.2934 7.27324 45.2934 7.7799C45.2934 8.27324 45.3868 8.66657 45.5734 8.9599C45.7734 9.25324 46.0734 9.46657 46.4734 9.5999C46.8734 9.73324 47.3868 9.7999 48.0134 9.7999C48.9734 9.7999 49.6868 9.65324 50.1534 9.3599C50.6334 9.06657 50.8734 8.57324 50.8734 7.8799H51.2534V9.8799H50.7134C50.5534 10.6266 50.1668 11.2332 49.5534 11.6999C48.9401 12.1532 48.0801 12.3799 46.9734 12.3799ZM66.5441 13.3999H63.5441V8.1599C63.5441 7.34657 63.3574 6.76657 62.9841 6.4199C62.6107 6.0599 61.9641 5.8799 61.0441 5.8799C60.0841 5.8799 59.4107 6.0799 59.0241 6.4799C58.6507 6.86657 58.4641 7.48657 58.4641 8.3399H58.0841L57.8641 6.4599H58.4241C58.5174 5.8999 58.7174 5.37324 59.0241 4.8799C59.3307 4.37324 59.7641 3.96657 60.3241 3.6599C60.8974 3.3399 61.6241 3.1799 62.5041 3.1799C63.4107 3.1799 64.1641 3.3599 64.7641 3.7199C65.3641 4.06657 65.8107 4.5399 66.1041 5.1399C66.3974 5.7399 66.5441 6.41324 66.5441 7.1599V13.3999ZM58.4641 13.3999H55.4641V3.3799H58.2441V6.4999L58.4641 6.5999V13.3999ZM73.3817 13.5999C72.2751 13.5999 71.2951 13.4132 70.4417 13.0399C69.5884 12.6666 68.9284 12.0932 68.4617 11.3199C67.9951 10.5466 67.7617 9.57324 67.7617 8.3999C67.7617 7.33324 67.9951 6.41324 68.4617 5.6399C68.9284 4.85324 69.5751 4.24657 70.4017 3.8199C71.2417 3.39323 72.2151 3.1799 73.3217 3.1799C74.4151 3.1799 75.3684 3.36657 76.1817 3.7399C77.0084 4.11324 77.6484 4.66657 78.1017 5.3999C78.5551 6.1199 78.7817 6.9999 78.7817 8.0399C78.7817 8.21324 78.7751 8.37324 78.7617 8.5199C78.7484 8.66657 78.7284 8.82657 78.7017 8.9999H69.7017V7.4199H76.5817L75.9017 8.3999C75.9017 8.26657 75.9017 8.1399 75.9017 8.0199C75.9017 7.8999 75.9017 7.7799 75.9017 7.6599C75.9017 6.8999 75.6951 6.35324 75.2817 6.0199C74.8684 5.68657 74.1951 5.5199 73.2617 5.5199C72.2484 5.5199 71.5417 5.7199 71.1417 6.1199C70.7417 6.50657 70.5417 7.12657 70.5417 7.9799V8.7399C70.5417 9.59324 70.7417 10.2199 71.1417 10.6199C71.5417 11.0066 72.2551 11.1999 73.2817 11.1999C74.1617 11.1999 74.7817 11.0866 75.1417 10.8599C75.5017 10.6332 75.6817 10.3066 75.6817 9.8799V9.6799H78.6817V9.8999C78.6817 10.6199 78.4617 11.2599 78.0217 11.8199C77.5817 12.3799 76.9617 12.8199 76.1617 13.1399C75.3751 13.4466 74.4484 13.5999 73.3817 13.5999ZM83.0539 13.3999H80.0539V3.3799H82.8339V6.2399L83.0539 6.3399V13.3999ZM83.0539 7.5999H82.4539V6.0399H83.0139C83.1072 5.49324 83.2872 5.00657 83.5539 4.5799C83.8339 4.1399 84.2072 3.7999 84.6739 3.5599C85.1406 3.30657 85.7072 3.1799 86.3739 3.1799C87.1339 3.1799 87.7406 3.3399 88.1939 3.6599C88.6606 3.96657 89.0006 4.38657 89.2139 4.9199C89.4272 5.4399 89.5339 6.02657 89.5339 6.6799V8.3399H86.5339V7.2999C86.5339 6.7399 86.4072 6.3399 86.1539 6.0999C85.9139 5.84657 85.4872 5.7199 84.8739 5.7199C84.2072 5.7199 83.7339 5.87324 83.4539 6.1799C83.1872 6.48657 83.0539 6.9599 83.0539 7.5999ZM97.2203 15.5399H90.0203V13.3999H97.2203V15.5399ZM100.138 16.7999H98.498V14.0799H100.958C101.331 14.0799 101.611 14.0266 101.798 13.9199C101.985 13.8132 102.138 13.6266 102.258 13.3599L102.678 12.3799L102.378 13.7799L97.318 3.3799H100.718L102.838 7.9599L103.678 10.3199H103.878L104.678 7.9399L106.578 3.3799H109.918L104.958 14.1199C104.638 14.8132 104.265 15.3532 103.838 15.7399C103.411 16.1399 102.898 16.4132 102.298 16.5599C101.698 16.7199 100.978 16.7999 100.138 16.7999ZM113.64 13.3999H110.64V3.3799H113.64V13.3999ZM113.64 2.3599H110.64V-9.799e-05H113.64V2.3599ZM126.29 13.3999H123.29V8.1599C123.29 7.34657 123.103 6.76657 122.73 6.4199C122.357 6.0599 121.71 5.8799 120.79 5.8799C119.83 5.8799 119.157 6.0799 118.77 6.4799C118.397 6.86657 118.21 7.48657 118.21 8.3399H117.83L117.61 6.4599H118.17C118.263 5.8999 118.463 5.37324 118.77 4.8799C119.077 4.37324 119.51 3.96657 120.07 3.6599C120.643 3.3399 121.37 3.1799 122.25 3.1799C123.157 3.1799 123.91 3.3599 124.51 3.7199C125.11 4.06657 125.557 4.5399 125.85 5.1399C126.143 5.7399 126.29 6.41324 126.29 7.1599V13.3999ZM118.21 13.3999H115.21V3.3799H117.99V6.4999L118.21 6.5999V13.3999ZM139.148 13.3999H135.608L133.108 9.7799H129.428V7.0999H133.088L135.648 3.3799H139.208L135.548 8.2199L139.148 13.3999ZM130.808 13.3999H127.808V-9.799e-05H130.808V13.3999ZM150.057 13.3999H147.257V11.0199L147.097 10.9799V7.4799C147.097 6.82657 146.93 6.38657 146.597 6.1599C146.277 5.93324 145.717 5.8199 144.917 5.8199C144.157 5.8199 143.61 5.93324 143.277 6.1599C142.943 6.38657 142.777 6.78657 142.777 7.3599V7.4399H139.757V7.3799C139.757 6.55324 139.977 5.82657 140.417 5.1999C140.857 4.5599 141.477 4.06657 142.277 3.7199C143.09 3.3599 144.043 3.1799 145.137 3.1799C146.257 3.1799 147.177 3.3599 147.897 3.7199C148.63 4.0799 149.17 4.58657 149.517 5.2399C149.877 5.8799 150.057 6.6399 150.057 7.5199V13.3999ZM143.017 13.5999C141.937 13.5999 141.09 13.3599 140.477 12.8799C139.863 12.3999 139.557 11.7466 139.557 10.9199C139.557 10.4132 139.677 9.9799 139.917 9.6199C140.157 9.2599 140.517 8.97324 140.997 8.7599C141.477 8.53324 142.077 8.3799 142.797 8.2999L147.297 7.8399V9.5599L143.617 9.9799C143.257 10.0066 142.99 10.0799 142.817 10.1999C142.657 10.3066 142.577 10.4799 142.577 10.7199C142.577 10.9866 142.683 11.1799 142.897 11.2999C143.11 11.4199 143.437 11.4799 143.877 11.4799C144.597 11.4799 145.19 11.4132 145.657 11.2799C146.123 11.1466 146.477 10.9332 146.717 10.6399C146.97 10.3332 147.097 9.92657 147.097 9.4199L147.377 9.3999V11.0999H147.097C146.87 11.8732 146.41 12.4866 145.717 12.9399C145.037 13.3799 144.137 13.5999 143.017 13.5999Z" fill="white"/>
</svg>
