<svg width="116" height="32" viewBox="0 0 116 32" fill="none" xmlns="http://www.w3.org/2000/svg">
<path d="M90.9073 2.14917C90.9073 1.18667 90.1291 0.407227 89.1645 0.407227H86.5833C85.6204 0.407227 84.8418 1.19001 84.8418 2.15293L84.8435 29.0883C84.8435 30.0508 85.6217 30.831 86.5846 30.831H89.1645C90.1291 30.831 90.9073 30.047 90.9073 29.0853V2.14917Z" fill="#5B5B5B"/>
<path d="M94.1973 2.86582V4.14595C94.1973 4.6763 94.6307 5.10385 95.1619 5.10385H112.966C113.779 5.10385 114.437 4.44936 114.437 3.63858V1.47034C114.437 0.659971 113.77 -0.0735007 112.963 0.00590648C112.963 0.00590648 95.7532 1.69059 95.1995 1.7537C94.5579 1.82558 94.1973 2.33504 94.1973 2.86582Z" fill="#5B5B5B"/>
<path d="M79.7818 30.8328C75.3534 30.8328 72.5658 27.4806 72.5658 23.7497L72.5616 12.9721H71.294C70.6186 12.9721 70.0703 12.4283 70.0703 11.7534V9.95001C70.0703 9.27546 70.6211 8.73299 71.2969 8.73299L72.5616 8.73507L72.5599 2.10917C72.5599 1.1705 73.3181 0.410278 74.2584 0.410278H76.7748C77.7135 0.410278 78.4733 1.17593 78.4733 2.11419V8.73549L82.3981 8.73424C83.0747 8.73424 83.6243 9.27713 83.6243 9.95126V11.7555C83.6243 12.43 83.0764 12.9733 82.401 12.9733L78.4745 12.9729L78.4774 22.9414C78.4774 24.899 79.6669 26.2352 81.79 26.2352L82.1465 26.2331C82.8808 26.2331 83.4772 26.8219 83.4772 27.5529V29.5118C83.4772 30.2444 82.882 30.8337 82.1494 30.8337H79.7818V30.8328Z" fill="#5B5B5B"/>
<path d="M38.3055 12.5687C40.9498 12.5687 43.2317 14.4461 43.4624 16.9855H33.1905C33.4208 14.4465 35.663 12.5692 38.3055 12.5687V7.9577C31.1472 7.9577 27.1309 13.5492 27.1309 19.4429C27.1309 25.7211 31.4318 31.2499 38.3532 31.2499C43.0905 31.2499 47.7608 28.759 48.6423 24.6687C48.7622 24.1166 48.389 23.3924 47.6104 23.3894H44.2247C43.6108 23.3894 43.1088 23.6841 42.8054 24.1271C41.8383 25.5439 40.4186 26.2978 38.3197 26.2978C35.3566 26.2978 33.3004 23.9662 33.1457 21.3821L47.5398 21.3813C48.8663 21.3813 49.4585 20.6633 49.4585 19.4412C49.4585 13.6955 46.0507 7.95728 38.3051 7.95728V12.5687H38.3055Z" fill="#5B5B5B"/>
<path d="M103.901 12.5687C106.543 12.5687 108.824 14.4461 109.056 16.9855H98.7826C99.0145 14.4465 101.258 12.5692 103.901 12.5687V7.9577C96.7405 7.9577 92.7246 13.5492 92.7246 19.4429C92.7246 25.7211 97.0256 31.2499 103.947 31.2499C108.684 31.2499 113.355 28.759 114.236 24.6687C114.356 24.1166 113.983 23.3924 113.204 23.3894H109.818C109.205 23.3894 108.703 23.6841 108.399 24.1271C107.432 25.5439 106.011 26.2978 103.914 26.2978C100.95 26.2978 98.8945 23.9662 98.7399 21.3821L113.134 21.3813C114.459 21.3813 115.053 20.6633 115.053 19.4412C115.053 13.6955 111.644 7.95728 103.901 7.95728V12.5687Z" fill="#5B5B5B"/>
<path d="M67.7205 0.710275H21.0943C20.0327 0.710275 19.1785 1.56745 19.1785 2.62608L19.3386 20.9018C19.3386 20.9018 9.29022 2.78991 8.76655 1.86544C8.27422 0.995305 7.21686 0.195801 5.75326 0.195801H1.91873C0.858435 0.195801 0 1.0534 0 2.11244L0.0012563 28.914C0.0012563 29.9722 0.859691 30.8307 1.91999 30.8307H4.37784C5.43981 30.8307 6.29532 29.9681 6.29532 28.9103L6.14068 10.1209C6.14068 10.1209 16.2852 28.4142 16.7185 29.1351C17.3037 30.1081 18.2954 30.8307 19.7306 30.8307L23.2521 30.8311C24.3124 30.8311 25.1691 29.9718 25.1691 28.914L25.1679 5.25153L67.7234 5.25278C68.4473 5.25278 69.0345 4.67018 69.0345 3.94758V2.01381C69.0345 1.29204 68.4444 0.710275 67.7205 0.710275Z" fill="#5B5B5B"/>
<path d="M60.174 12.3467C62.2002 12.3467 63.7181 13.0806 64.2631 14.3486C64.5251 14.9576 65.0333 15.0754 65.7329 15.0754H68.5201C68.9811 15.0754 69.5102 14.68 69.5102 14.0791C69.5102 10.8438 65.6456 7.95593 60.1711 7.95593C54.5094 7.95593 50.7906 10.6487 50.7906 14.9354C50.7906 18.217 53.3876 20.1696 56.5811 21.0021C58.0376 21.382 60.5218 21.996 61.7321 22.3119C63.0369 22.6534 64.2029 23.0517 64.2029 24.1663C64.2029 25.927 62.3444 26.5259 60.314 26.5259C58.3907 26.5259 56.4737 25.6683 55.9253 24.2988C55.6077 23.5068 55.0498 23.391 54.2055 23.391H51.3699C50.8763 23.391 50.3066 23.8152 50.3066 24.4592V24.8233C50.3066 27.9548 54.5148 31.2327 60.3199 31.2327C64.4365 31.2327 70.1722 29.5242 70.1722 24.0154C70.1722 20.8249 68.032 18.6149 64.5506 17.7326C63.1898 17.3878 59.9178 16.5566 59.2065 16.3735C57.9377 16.0467 56.7528 15.6338 56.7528 14.5484C56.7533 12.9047 58.2754 12.3467 60.174 12.3467Z" fill="#5B5B5B"/>
</svg>
