<svg width="37" height="22" viewBox="0 0 37 22" fill="none" xmlns="http://www.w3.org/2000/svg">
<g clip-path="url(#clip0_6510_490)">
<path d="M0 19.6943C0 19.2965 0.139648 18.958 0.418945 18.6787C0.698242 18.391 1.03678 18.2471 1.43457 18.2471H4.21484V3.17773C4.21484 2.28906 4.45605 1.62044 4.93848 1.17188C5.42936 0.714844 6.09375 0.486328 6.93164 0.486328H29.6816C30.5703 0.486328 31.2432 0.714844 31.7002 1.17188C32.1657 1.62044 32.3984 2.28906 32.3984 3.17773V18.2471H35.1787C35.5765 18.2471 35.915 18.391 36.1943 18.6787C36.4736 18.958 36.6133 19.2965 36.6133 19.6943C36.6133 20.0921 36.4736 20.4307 36.1943 20.71C35.915 20.9977 35.5765 21.1416 35.1787 21.1416H1.43457C1.03678 21.1416 0.698242 20.9977 0.418945 20.71C0.139648 20.4307 0 20.0921 0 19.6943ZM6.25879 18.2471H30.3545V3.74902C30.3545 3.34277 30.2529 3.03809 30.0498 2.83496C29.8467 2.63184 29.542 2.53027 29.1357 2.53027H7.47754C7.07129 2.53027 6.7666 2.63184 6.56348 2.83496C6.36035 3.03809 6.25879 3.34277 6.25879 3.74902V18.2471ZM16.1484 14.832C15.4544 14.832 15.1074 14.4596 15.1074 13.7148V10.3633C15.1074 9.77083 15.3317 9.41536 15.7803 9.29688V8.49707C15.7803 7.65072 16.013 6.96517 16.4785 6.44043C16.9525 5.91569 17.5661 5.65332 18.3193 5.65332C19.0726 5.65332 19.682 5.91569 20.1475 6.44043C20.6214 6.96517 20.8584 7.65072 20.8584 8.49707V9.28418C21.307 9.42806 21.5312 9.78776 21.5312 10.3633V13.7148C21.5312 14.4596 21.18 14.832 20.4775 14.832H16.1484ZM17.0371 9.24609H19.6016V8.39551C19.6016 7.93001 19.4831 7.56185 19.2461 7.29102C19.0091 7.01172 18.7002 6.87207 18.3193 6.87207C17.93 6.87207 17.6169 7.01172 17.3799 7.29102C17.1514 7.56185 17.0371 7.93001 17.0371 8.39551V9.24609Z" fill="#687671"/>
</g>
<defs>
<clipPath id="clip0_6510_490">
<rect width="37" height="22" fill="white"/>
</clipPath>
</defs>
</svg>

